<svg width="5374" height="2085" xmlns="http://www.w3.org/2000/svg" xmlns:xlink="http://www.w3.org/1999/xlink">
  <defs>
    <path d="M94.245 476.284C31.709 538.818.459 620.788.457 702.759c0 81.975 31.286 163.975 93.817 226.509 62.522 62.52 144.469 93.798 226.424 93.798a321.39 321.39 0 0 0 72.037-8.171c62.28-25.298 121.444-60.646 174.97-106.104L696.313 780.18l.002-.002-95.002 95.002C669.4 794.95 714.87 702.086 737.738 604.982a595.06 595.06 0 0 1-9.217 19.093c-20.791 41.085-46.492 79.918-76.408 115.454L527.046 864.595c-45.869 38.643-97.083 69.851-152.324 92.834a261.734 261.734 0 0 1-54.024 5.636c-33.822 0-66.776-6.41-97.947-19.054-32.239-13.075-61.191-32.31-86.049-57.168-24.862-24.864-44.102-53.826-57.182-86.087-12.648-31.191-19.062-64.161-19.062-97.995 0-33.842 6.41-66.81 19.048-97.987 13.073-32.251 32.306-61.205 57.164-86.063L609.615 45.765A656.984 656.984 0 0 0 569.562.966L94.245 476.284z" id="a"/>
    <linearGradient x1="0%" y1="50%" x2="115.518%" y2="50%" id="b">
      <stop stop-color="#0E4487" offset="0%"/>
      <stop stop-color="#1C1826" offset="100%"/>
    </linearGradient>
    <path d="M51.744-966.837c-125.069 125.067-125.067 327.883.032 452.982L526.023-39.607a645.602 645.602 0 0 1 38.811 35.788 591.76 591.76 0 0 1 4.728 4.785l42.418-42.415c-1.57-1.601-3.131-3.208-4.718-4.795a710.764 710.764 0 0 0-40.503-37.479L94.201-556.28c-24.869-24.872-44.111-53.836-57.192-86.089-12.648-31.185-19.06-64.155-19.062-97.991-.002-33.836 6.408-66.804 19.051-97.983 13.074-32.249 32.31-61.205 57.173-86.069 24.858-24.856 53.813-44.09 86.062-57.164 31.179-12.636 64.146-19.046 97.987-19.046 33.842 0 66.809 6.41 97.986 19.05 32.255 13.076 61.221 32.32 86.093 57.192l742.813 742.811c24.86 24.862 44.097 53.82 57.172 86.069 12.644 31.181 19.054 64.146 19.054 97.98 0 33.837-6.41 66.802-19.054 97.981-13.076 32.251-32.312 61.207-57.174 86.069L813.591 578.049c-26.01 72.094-65.133 140.689-117.276 202.127l551.223-551.218c125.065-125.068 125.067-327.885 0-452.953L504.727-966.806c-62.566-62.563-144.537-93.815-226.507-93.815-81.971 0-163.942 31.252-226.476 93.784" id="d"/>
    <linearGradient x1="0%" y1="50%" y2="50%" id="e">
      <stop stop-color="#4BBFEF" offset="0%"/>
      <stop stop-color="#4469AF" offset="100%"/>
    </linearGradient>
    <path d="M609.615 45.765c130.468 160.119 173.178 367.902 128.123 559.217 16.194-35.07 28.958-71.7 38.002-109.176 20.72-85.882 21.74-175.565 3.184-261.157-26.865-82.989-69.165-161.75-126.728-231.464l-42.581 42.58z" id="g"/>
    <linearGradient x1="-357.102%" y1="50%" x2="400.971%" y2="50%" id="h">
      <stop stop-color="#4BBFEF" offset="0%"/>
      <stop stop-color="#4469AF" offset="100%"/>
    </linearGradient>
    <path d="M569.562.966a656.984 656.984 0 0 1 40.053 44.799l42.581-42.58a701.968 701.968 0 0 0-40.216-44.634L569.562.966z" id="j"/>
    <linearGradient x1="-688.704%" y1="49.999%" x2="341.977%" y2="49.999%" id="k">
      <stop stop-color="#0E4487" offset="0%"/>
      <stop stop-color="#1C1826" offset="100%"/>
    </linearGradient>
    <path d="M569.562.966a656.984 656.984 0 0 1 40.053 44.799l42.581-42.58a701.968 701.968 0 0 0-40.216-44.634L569.562.966z" id="m"/>
    <linearGradient x1="-740.149%" y1="49.999%" x2="933.969%" y2="49.999%" id="n">
      <stop stop-color="#4BBFEF" offset="0%"/>
      <stop stop-color="#4469AF" offset="100%"/>
    </linearGradient>
    <path d="M775.74 495.806c-9.044 37.476-21.808 74.106-38.002 109.176C714.87 702.086 669.4 794.95 601.313 875.18l95.002-95.004c52.143-61.438 91.266-130.033 117.276-202.127l-12.324 12.324c22.43-118.191 14.796-241.001-22.343-355.724 18.556 85.592 17.536 175.275-3.184 261.157" id="p"/>
    <linearGradient x1="-282.71%" y1="50%" x2="118.023%" y2="50%" id="q">
      <stop stop-color="#0E4487" offset="0%"/>
      <stop stop-color="#1C1826" offset="100%"/>
    </linearGradient>
    <path d="M775.74 495.806c-9.044 37.476-21.808 74.106-38.002 109.176C714.87 702.086 669.4 794.95 601.313 875.18l95.002-95.004c52.143-61.438 91.266-130.033 117.276-202.127l-12.324 12.324c22.43-118.191 14.796-241.001-22.343-355.724 18.556 85.592 17.536 175.275-3.184 261.157" id="s"/>
    <linearGradient x1="-302.712%" y1="50%" x2="348.191%" y2="50%" id="t">
      <stop stop-color="#4BBFEF" offset="0%"/>
      <stop stop-color="#4469AF" offset="100%"/>
    </linearGradient>
    <path d="M345.55 8.55c-62.279 25.296-121.445 60.644-174.969 106.104L41.97 243.263v.002l95.002-95.002C68.885 228.493 23.415 321.356.547 418.461a596.039 596.039 0 0 1 9.217-19.092c20.792-41.085 46.492-79.918 76.408-115.453L211.24 158.848c45.868-38.641 97.082-69.852 152.324-92.832a261.733 261.733 0 0 1 54.023-5.638c33.82 0 66.776 6.412 97.947 19.054 32.239 13.076 61.19 32.312 86.05 57.17 24.862 24.862 44.101 53.824 57.182 86.085 12.648 31.191 19.062 64.162 19.062 97.996-.002 33.84-6.41 66.808-19.048 97.987-13.073 32.249-32.307 61.203-57.165 86.063L128.671 977.678a656.268 656.268 0 0 0 40.052 44.8l475.318-475.319c62.535-62.534 93.784-144.505 93.786-226.474 0-81.975-31.284-163.977-93.818-226.511C581.489 31.655 499.542.379 417.587.379A321.39 321.39 0 0 0 345.55 8.55" id="v"/>
    <linearGradient x1="100%" y1="50%" x2="-15.518%" y2="50%" id="w">
      <stop stop-color="#0E4487" offset="0%"/>
      <stop stop-color="#1C1826" offset="100%"/>
    </linearGradient>
    <path d="M-509.252 794.487c-125.066 125.067-125.068 327.883 0 452.951l742.811 742.812c62.565 62.564 144.536 93.816 226.507 93.816s163.942-31.252 226.475-93.784c125.068-125.067 125.066-327.885-.031-452.982l-474.248-474.25a646.198 646.198 0 0 1-38.813-35.787 733.854 733.854 0 0 1-4.726-4.785l-42.417 42.416c1.569 1.601 3.131 3.206 4.718 4.795a711.798 711.798 0 0 0 40.501 37.479l472.559 472.557c24.87 24.87 44.112 53.834 57.192 86.089 12.646 31.185 19.06 64.154 19.062 97.991.002 33.836-6.408 66.801-19.05 97.982-13.075 32.249-32.31 61.206-57.174 86.068-24.858 24.857-53.812 44.091-86.063 57.164-31.177 12.638-64.145 19.046-97.985 19.046-33.842 0-66.81-6.408-97.987-19.05-32.255-13.077-61.221-32.318-86.093-57.192l-742.81-742.811c-24.864-24.86-44.1-53.82-57.176-86.067-12.643-31.181-19.053-64.147-19.053-97.983 0-33.834 6.41-66.802 19.054-97.981 13.077-32.249 32.313-61.207 57.175-86.069l391.518-391.516c26.011-72.097 65.134-140.689 117.274-202.129l-551.22 551.22z" id="y"/>
    <linearGradient x1="100%" y1="50%" x2="0%" y2="50%" id="z">
      <stop stop-color="#4BBFEF" offset="0%"/>
      <stop stop-color="#4469AF" offset="100%"/>
    </linearGradient>
    <path d="M-37.454 527.639c-20.721 85.879-21.741 175.563-3.185 261.154 26.864 82.992 69.165 161.753 126.728 231.466l42.582-42.581C-1.798 817.56-44.508 609.777.547 418.461c-16.193 35.072-28.96 71.699-38.001 109.178" id="B"/>
    <linearGradient x1="457.1%" y1="50%" x2="-300.969%" y2="50%" id="C">
      <stop stop-color="#4BBFEF" offset="0%"/>
      <stop stop-color="#4469AF" offset="100%"/>
    </linearGradient>
    <path d="M86.089 1020.259a701.09 701.09 0 0 0 40.217 44.635l42.417-42.416a656.268 656.268 0 0 1-40.052-44.8l-42.582 42.581z" id="E"/>
    <linearGradient x1="788.705%" y1="50%" x2="-241.976%" y2="50%" id="F">
      <stop stop-color="#0E4487" offset="0%"/>
      <stop stop-color="#1C1826" offset="100%"/>
    </linearGradient>
    <path d="M86.089 1020.259a701.09 701.09 0 0 0 40.217 44.635l42.417-42.416a656.268 656.268 0 0 1-40.052-44.8l-42.582 42.581z" id="H"/>
    <linearGradient x1="840.149%" y1="50%" x2="-833.968%" y2="50%" id="I">
      <stop stop-color="#4BBFEF" offset="0%"/>
      <stop stop-color="#4469AF" offset="100%"/>
    </linearGradient>
    <path d="M41.968 243.267c-52.14 61.44-91.263 130.032-117.274 202.129l12.324-12.325c-22.429 118.192-14.795 241.001 22.343 355.722-18.556-85.591-17.536-175.275 3.185-261.154 9.041-37.479 21.808-74.106 38.001-109.178 22.868-97.105 68.338-189.968 136.425-270.198l-95.004 95.004z" id="K"/>
    <linearGradient x1="382.711%" y1="50%" x2="-18.023%" y2="50%" id="L">
      <stop stop-color="#0E4487" offset="0%"/>
      <stop stop-color="#1C1826" offset="100%"/>
    </linearGradient>
    <path d="M41.968 243.267c-52.14 61.44-91.263 130.032-117.274 202.129l12.324-12.325c-22.429 118.192-14.795 241.001 22.343 355.722-18.556-85.591-17.536-175.275 3.185-261.154 9.041-37.479 21.808-74.106 38.001-109.178 22.868-97.105 68.338-189.968 136.425-270.198l-95.004 95.004z" id="N"/>
    <linearGradient x1="402.713%" y1="50%" x2="-248.192%" y2="50%" id="O">
      <stop stop-color="#4BBFEF" offset="0%"/>
      <stop stop-color="#4469AF" offset="100%"/>
    </linearGradient>
  </defs>
  <g fill="none" fill-rule="evenodd">
    <g fill="#0F4588" fill-rule="nonzero">
      <path d="M1247.192 899.134h-66.443v206.503h-28.698V899.134h-66.443v-24.331h161.584zM1577.847 987.88c0-26.456-9.567-48.848-28.698-67.18-19.135-18.325-42.112-27.493-68.94-27.493-26.411 0-48.768 9.582-67.065 28.747-18.302 19.164-27.451 42.18-27.451 69.05 0 26.457 9.514 48.794 28.543 67.019 19.028 18.228 42.058 27.337 69.094 27.337 26.408 0 48.765-9.577 67.067-28.742 18.297-19.164 27.45-42.077 27.45-68.738m28.698.624c0 34.147-12.01 63.25-36.03 87.299-24.018 24.049-53.082 36.072-87.185 36.072-34.523 0-64.211-11.604-89.06-34.824-24.851-23.215-37.275-51.69-37.275-85.428 0-34.147 12.01-63.245 36.029-87.294 24.019-24.048 53.078-36.077 87.186-36.077 34.518 0 64.206 11.609 89.059 34.825 24.848 23.22 37.276 51.694 37.276 85.427M1818.664 902.565a69.823 69.823 0 0 0-8.58-2.652c-3.016-.726-5.77-1.092-8.265-1.092h-43.983v77.361h51.47c9.982 0 17.727-3.48 23.239-10.45 5.508-6.965 8.266-15.44 8.266-25.423 0-8.315-1.871-15.909-5.614-22.77-3.744-6.864-9.256-11.855-16.533-14.974zm63.4 203.013l-37.51.058-86.718-117.913v117.913h-29.01V874.802l85.47.936c16.426 0 29.893 6.238 40.397 18.716 10.498 12.477 15.753 26.934 15.753 43.36 0 8.733-1.507 16.844-4.52 24.331-3.011 7.486-7.948 14.35-14.801 20.588-7.687 6.238-16.1 10.713-25.238 13.413l-30.535-.059 86.713 109.491zM2187.062 1095.343c-10.815 4.577-21.787 8.11-32.909 10.605a154.12 154.12 0 0 1-33.845 3.745c-16.017 0-31.302-2.604-45.855-7.8-14.559-5.196-27.87-13.101-39.929-23.706-24.54-24.955-36.808-54.38-36.808-88.28 0-22.04 4.835-40.965 14.505-56.772 9.67-15.802 19.131-27.918 28.386-36.341 9.251-8.422 18.093-14.348 26.515-17.78 8.422-3.432 15.285-5.771 20.588-7.02a138.95 138.95 0 0 1 16.221-2.806c5.507-.624 10.864-.936 16.065-.936 7.691 0 15.801.678 24.331 2.028a206.5 206.5 0 0 1 25.579 5.77l17.156 7.799v30.57c-19.34-13.725-40.552-20.588-63.635-20.588-15.597 0-30.156 3.173-43.672 9.514-13.52 6.346-25.164 16.064-34.937 29.166-5.614 8.32-9.933 17.366-12.945 27.139a100.998 100.998 0 0 0-4.523 29.946c0 17.678 4.416 34.265 13.257 49.754 8.837 15.495 21.002 27.139 36.497 34.937 15.49 7.798 31.243 11.698 47.259 11.698 17.259 0 32.753-4.26 46.478-12.79l16.221-10.293v32.44zM2508.359 1105.637h-27.14V990.532h-127.893v115.105h-27.14V874.803h27.14V966.2h127.894v-91.397h27.139zM2712.366 1105.637h27.139V874.803h-27.139zM3137.538 987.88c0-26.456-9.567-48.848-28.698-67.18-19.136-18.325-42.112-27.493-68.939-27.493-26.412 0-48.769 9.582-67.066 28.747-18.302 19.164-27.45 42.18-27.45 69.05 0 26.457 9.513 48.794 28.542 67.019 19.028 18.228 42.057 27.337 69.093 27.337 26.41 0 48.766-9.577 67.068-28.742 18.297-19.164 27.45-42.077 27.45-68.738m28.698.624c0 34.147-12.01 63.25-36.028 87.299-24.02 24.049-53.083 36.072-87.188 36.072-34.522 0-64.21-11.604-89.057-34.824-24.853-23.215-37.278-51.69-37.278-85.428 0-34.147 12.01-63.245 36.03-87.294 24.02-24.048 53.078-36.077 87.186-36.077 34.52 0 64.206 11.609 89.06 34.825 24.847 23.22 37.275 51.694 37.275 85.427M3378.042 1072.26c8.315-11.021 12.478-24.02 12.478-38.993 0-12.682-3.383-23.965-10.138-33.845-6.761-9.875-16.587-16.064-29.479-18.56-3.743-.415-6.55-.624-8.423-.624-12.272 0-23.034 4.006-32.285 12.009-9.256 8.008-14.349 15.704-15.285 23.084-.935 7.384-1.457 11.908-1.559 13.57a68.161 68.161 0 0 0-.157 4.366c0 14.768 3.9 27.558 11.699 38.369 7.797 10.815 18.872 16.22 33.221 16.22 8.315 0 15.699-1.194 22.148-3.587 6.443-2.388 12.37-6.395 17.78-12.01zm35.873 33.377h-23.395v-28.698c-5.225 10.4-12.751 18.355-22.573 23.863-9.825 5.508-20.378 8.267-31.666 8.267-8.988 0-17.765-1.667-26.335-4.992-8.568-3.324-16.302-8.37-23.2-15.13-6.896-6.754-12.067-14.762-15.518-24.018-3.452-9.251-5.172-19.077-5.172-29.48 0-16.22 3.967-31.606 11.912-46.165 6.063-10.187 14.525-18.195 25.394-24.02 10.869-5.818 22.26-8.733 34.177-8.733 12.331 0 23.614 3.226 33.855 9.669a78.925 78.925 0 0 1 9.089 7.799c2.925 2.914 6.274 6.55 10.037 10.918V861.389h23.395v244.248zM3710.256 1017.358c-2.29-11.645-7.798-21.158-16.532-28.543-8.735-7.379-19.03-11.073-30.882-11.073-10.607 0-19.915 3.9-27.92 11.697-8.007 7.8-13.256 17.108-15.752 27.92h91.086zm25.892 54.277c-8.735 11.65-19.341 20.797-31.82 27.451-12.476 6.653-25.684 9.982-39.615 9.982-13.311 0-25.998-3.227-38.056-9.67-11.23-7.277-19.76-16.738-25.58-28.387-5.823-11.644-8.733-24.33-8.733-38.056 0-18.507 5.35-35.093 16.064-49.754 10.709-14.66 21.729-22.874 33.066-24.644 11.332-1.764 19.077-2.65 23.239-2.65 13.307 0 25.735 3.016 37.277 9.045 11.54 6.034 20.013 15.236 25.423 27.607 5.405 12.375 8.11 26.88 8.11 43.515h-117.288c0 14.144 4.455 26.31 13.375 36.497 8.918 10.191 20.119 15.285 33.606 15.285 4.143 0 7.876-.414 11.195-1.248 8.296-1.248 15.455-4.21 21.47-8.89 6.015-4.679 11.922-10.966 17.732-18.873l20.535 12.79zM4050.27 960.586l-68.32 150.042h-6.55l-70.41-150.042 30.569-.04 44.567 106.6 41.152-106.56zM4261.764 977.118c4.367 1.248 7.69 3.587 9.982 7.019 2.286 3.43 3.43 7.228 3.43 11.385 0 4.992-1.402 9.256-4.21 12.789-2.807 3.539-6.916 5.513-12.321 5.928-6.658 0-11.698-1.872-15.13-5.615-3.431-3.743-5.147-8.627-5.147-14.661 0-2.286.313-4.68.936-7.175 2.077-3.324 5.094-5.771 9.047-7.33 3.947-1.56 8.422-2.34 13.413-2.34zm18.716 99.19l-40.552 82.904-17.47-6.234 29.948-84.463 28.074 7.794z"/>
    </g>
    <g transform="translate(4032 1061)">
      <mask id="c" fill="#fff">
        <use xlink:href="#a"/>
      </mask>
      <path d="M94.245 476.284C31.709 538.818.459 620.788.457 702.759c0 81.975 31.286 163.975 93.817 226.509 62.522 62.52 144.469 93.798 226.424 93.798a321.39 321.39 0 0 0 72.037-8.171c62.28-25.298 121.444-60.646 174.97-106.104L696.313 780.18l.002-.002-95.002 95.002C669.4 794.95 714.87 702.086 737.738 604.982a595.06 595.06 0 0 1-9.217 19.093c-20.791 41.085-46.492 79.918-76.408 115.454L527.046 864.595c-45.869 38.643-97.083 69.851-152.324 92.834a261.734 261.734 0 0 1-54.024 5.636c-33.822 0-66.776-6.41-97.947-19.054-32.239-13.075-61.191-32.31-86.049-57.168-24.862-24.864-44.102-53.826-57.182-86.087-12.648-31.191-19.062-64.161-19.062-97.995 0-33.842 6.41-66.81 19.048-97.987 13.073-32.251 32.306-61.205 57.164-86.063L609.615 45.765A656.984 656.984 0 0 0 569.562.966L94.245 476.284z" fill="url(#b)" fill-rule="nonzero" mask="url(#c)"/>
      <mask id="f" fill="#fff">
        <use xlink:href="#d"/>
      </mask>
      <path d="M51.744-966.837c-125.069 125.067-125.067 327.883.032 452.982L526.023-39.607a645.602 645.602 0 0 1 38.811 35.788 591.76 591.76 0 0 1 4.728 4.785l42.418-42.415c-1.57-1.601-3.131-3.208-4.718-4.795a710.764 710.764 0 0 0-40.503-37.479L94.201-556.28c-24.869-24.872-44.111-53.836-57.192-86.089-12.648-31.185-19.06-64.155-19.062-97.991-.002-33.836 6.408-66.804 19.051-97.983 13.074-32.249 32.31-61.205 57.173-86.069 24.858-24.856 53.813-44.09 86.062-57.164 31.179-12.636 64.146-19.046 97.987-19.046 33.842 0 66.809 6.41 97.986 19.05 32.255 13.076 61.221 32.32 86.093 57.192l742.813 742.811c24.86 24.862 44.097 53.82 57.172 86.069 12.644 31.181 19.054 64.146 19.054 97.98 0 33.837-6.41 66.802-19.054 97.981-13.076 32.251-32.312 61.207-57.174 86.069L813.591 578.049c-26.01 72.094-65.133 140.689-117.276 202.127l551.223-551.218c125.065-125.068 125.067-327.885 0-452.953L504.727-966.806c-62.566-62.563-144.537-93.815-226.507-93.815-81.971 0-163.942 31.252-226.476 93.784" fill="url(#e)" fill-rule="nonzero" mask="url(#f)"/>
      <mask id="i" fill="#fff">
        <use xlink:href="#g"/>
      </mask>
      <path d="M609.615 45.765c130.468 160.119 173.178 367.902 128.123 559.217 16.194-35.07 28.958-71.7 38.002-109.176 20.72-85.882 21.74-175.565 3.184-261.157-26.865-82.989-69.165-161.75-126.728-231.464l-42.581 42.58z" fill="url(#h)" fill-rule="nonzero" mask="url(#i)"/>
      <mask id="l" fill="#fff">
        <use xlink:href="#j"/>
      </mask>
      <path d="M569.562.966a656.984 656.984 0 0 1 40.053 44.799l42.581-42.58a701.968 701.968 0 0 0-40.216-44.634L569.562.966z" fill="url(#k)" fill-rule="nonzero" mask="url(#l)"/>
      <mask id="o" fill="#fff">
        <use xlink:href="#m"/>
      </mask>
      <path d="M569.562.966a656.984 656.984 0 0 1 40.053 44.799l42.581-42.58a701.968 701.968 0 0 0-40.216-44.634L569.562.966z" fill="url(#n)" fill-rule="nonzero" mask="url(#o)"/>
      <mask id="r" fill="#fff">
        <use xlink:href="#p"/>
      </mask>
      <path d="M775.74 495.806c-9.044 37.476-21.808 74.106-38.002 109.176C714.87 702.086 669.4 794.95 601.313 875.18l95.002-95.004c52.143-61.438 91.266-130.033 117.276-202.127l-12.324 12.324c22.43-118.191 14.796-241.001-22.343-355.724 18.556 85.592 17.536 175.275-3.184 261.157" fill="url(#q)" fill-rule="nonzero" mask="url(#r)"/>
      <mask id="u" fill="#fff">
        <use xlink:href="#s"/>
      </mask>
      <path d="M775.74 495.806c-9.044 37.476-21.808 74.106-38.002 109.176C714.87 702.086 669.4 794.95 601.313 875.18l95.002-95.004c52.143-61.438 91.266-130.033 117.276-202.127l-12.324 12.324c22.43-118.191 14.796-241.001-22.343-355.724 18.556 85.592 17.536 175.275-3.184 261.157" fill="url(#t)" fill-rule="nonzero" mask="url(#u)"/>
    </g>
    <g transform="translate(604)">
      <mask id="x" fill="#fff">
        <use xlink:href="#v"/>
      </mask>
      <path d="M345.55 8.55c-62.279 25.296-121.445 60.644-174.969 106.104L41.97 243.263v.002l95.002-95.002C68.885 228.493 23.415 321.356.547 418.461a596.039 596.039 0 0 1 9.217-19.092c20.792-41.085 46.492-79.918 76.408-115.453L211.24 158.848c45.868-38.641 97.082-69.852 152.324-92.832a261.733 261.733 0 0 1 54.023-5.638c33.82 0 66.776 6.412 97.947 19.054 32.239 13.076 61.19 32.312 86.05 57.17 24.862 24.862 44.101 53.824 57.182 86.085 12.648 31.191 19.062 64.162 19.062 97.996-.002 33.84-6.41 66.808-19.048 97.987-13.073 32.249-32.307 61.203-57.165 86.063L128.671 977.678a656.268 656.268 0 0 0 40.052 44.8l475.318-475.319c62.535-62.534 93.784-144.505 93.786-226.474 0-81.975-31.284-163.977-93.818-226.511C581.489 31.655 499.542.379 417.587.379A321.39 321.39 0 0 0 345.55 8.55" fill="url(#w)" fill-rule="nonzero" mask="url(#x)"/>
      <mask id="A" fill="#fff">
        <use xlink:href="#y"/>
      </mask>
      <path d="M-509.252 794.487c-125.066 125.067-125.068 327.883 0 452.951l742.811 742.812c62.565 62.564 144.536 93.816 226.507 93.816s163.942-31.252 226.475-93.784c125.068-125.067 125.066-327.885-.031-452.982l-474.248-474.25a646.198 646.198 0 0 1-38.813-35.787 733.854 733.854 0 0 1-4.726-4.785l-42.417 42.416c1.569 1.601 3.131 3.206 4.718 4.795a711.798 711.798 0 0 0 40.501 37.479l472.559 472.557c24.87 24.87 44.112 53.834 57.192 86.089 12.646 31.185 19.06 64.154 19.062 97.991.002 33.836-6.408 66.801-19.05 97.982-13.075 32.249-32.31 61.206-57.174 86.068-24.858 24.857-53.812 44.091-86.063 57.164-31.177 12.638-64.145 19.046-97.985 19.046-33.842 0-66.81-6.408-97.987-19.05-32.255-13.077-61.221-32.318-86.093-57.192l-742.81-742.811c-24.864-24.86-44.1-53.82-57.176-86.067-12.643-31.181-19.053-64.147-19.053-97.983 0-33.834 6.41-66.802 19.054-97.981 13.077-32.249 32.313-61.207 57.175-86.069l391.518-391.516c26.011-72.097 65.134-140.689 117.274-202.129l-551.22 551.22z" fill="url(#z)" fill-rule="nonzero" mask="url(#A)"/>
      <mask id="D" fill="#fff">
        <use xlink:href="#B"/>
      </mask>
      <path d="M-37.454 527.639c-20.721 85.879-21.741 175.563-3.185 261.154 26.864 82.992 69.165 161.753 126.728 231.466l42.582-42.581C-1.798 817.56-44.508 609.777.547 418.461c-16.193 35.072-28.96 71.699-38.001 109.178" fill="url(#C)" fill-rule="nonzero" mask="url(#D)"/>
      <mask id="G" fill="#fff">
        <use xlink:href="#E"/>
      </mask>
      <path d="M86.089 1020.259a701.09 701.09 0 0 0 40.217 44.635l42.417-42.416a656.268 656.268 0 0 1-40.052-44.8l-42.582 42.581z" fill="url(#F)" fill-rule="nonzero" mask="url(#G)"/>
      <mask id="J" fill="#fff">
        <use xlink:href="#H"/>
      </mask>
      <path d="M86.089 1020.259a701.09 701.09 0 0 0 40.217 44.635l42.417-42.416a656.268 656.268 0 0 1-40.052-44.8l-42.582 42.581z" fill="url(#I)" fill-rule="nonzero" mask="url(#J)"/>
      <mask id="M" fill="#fff">
        <use xlink:href="#K"/>
      </mask>
      <path d="M41.968 243.267c-52.14 61.44-91.263 130.032-117.274 202.129l12.324-12.325c-22.429 118.192-14.795 241.001 22.343 355.722-18.556-85.591-17.536-175.275 3.185-261.154 9.041-37.479 21.808-74.106 38.001-109.178 22.868-97.105 68.338-189.968 136.425-270.198l-95.004 95.004z" fill="url(#L)" fill-rule="nonzero" mask="url(#M)"/>
      <mask id="P" fill="#fff">
        <use xlink:href="#N"/>
      </mask>
      <path d="M41.968 243.267c-52.14 61.44-91.263 130.032-117.274 202.129l12.324-12.325c-22.429 118.192-14.795 241.001 22.343 355.722-18.556-85.591-17.536-175.275 3.185-261.154 9.041-37.479 21.808-74.106 38.001-109.178 22.868-97.105 68.338-189.968 136.425-270.198l-95.004 95.004z" fill="url(#O)" fill-rule="nonzero" mask="url(#P)"/>
    </g>
  </g>
</svg>
