<?xml version="1.0" standalone="no"?>
<!DOCTYPE svg PUBLIC "-//W3C//DTD SVG 1.1//EN" "http://www.w3.org/Graphics/SVG/1.1/DTD/svg11.dtd" >
<svg xmlns="http://www.w3.org/2000/svg" xmlns:xlink="http://www.w3.org/1999/xlink" version="1.1">
<metadata>
Created by FontForge 20170910 at Fri Nov 27 17:48:38 1992
 By Jimmy Wärting
From the WSI-FONT Collection.  Copyright (c) 1992 W.S.I.  All Rights Reserved.  Redistribution strictly prohibited.  
</metadata>
<defs>
<font id="FuturistFixedWidthBold" horiz-adv-x="1000" >
  <font-face 
    font-family="Futurist Fixed-width"
    font-weight="7"
    font-stretch="normal"
    units-per-em="1000"
    panose-1="0 0 0 0 0 0 0 0 0 0"
    ascent="800"
    descent="-200"
    x-height="469"
    cap-height="740"
    bbox="-37 -238 2391 1020"
    underline-thickness="50"
    underline-position="-125"
    unicode-range="U+0020-F002"
  />
<missing-glyph horiz-adv-x="800" 
d="M50 0v800h700v-800h-700zM700 50v700h-600v-700h600z" />
    <glyph glyph-name=".notdef" horiz-adv-x="800" 
d="M50 0v800h700v-800h-700zM700 50v700h-600v-700h600z" />
    <glyph glyph-name=".null" horiz-adv-x="0" 
 />
    <glyph glyph-name="nonmarkingreturn" 
 />
    <glyph glyph-name="space" unicode=" " 
 />
    <glyph glyph-name="exclam" unicode="!" 
d="M546 225h-141v515h141v-515zM513 143q21 -14 33 -36t12 -45t-13.5 -43t-32.5 -26t-32 -6q-34 0 -59.5 20t-25.5 54q-1 6 0 17.5t4 21.5q16 30 49 46q17 1 35 3q8 -1 12 -1z" />
    <glyph glyph-name="quotedbl" unicode="&#x22;" 
d="M460 738l-108 -291h-89l52 291h145zM700 736l-111 -291h-90l57 291h144z" />
    <glyph glyph-name="numbersign" unicode="#" 
d="M721 473l-17 -78h-104l-33 -133h109l-17 -78h-108l-47 -186h-68l47 186h-92l-45 -186h-68l43 186h-90l17 78h94l31 133h-99l14 78h103l45 191h70l-45 -191h92l43 191h70l-46 -191h101zM532 393h-90l-33 -133h91z" />
    <glyph glyph-name="dollar" unicode="$" 
d="M748 225q0 -4 1 -13t1 -14q0 -77 -54.5 -134t-134.5 -70v-125h-39v117h-55v-117h-39v117l-99 26q-26 14 -51.5 34t-46.5 42l76 100q22 -36 52.5 -60.5t68.5 -31.5v228q-76 25 -126 68t-50 112q0 87 46 146.5t130 74.5v70h39v-63h55v63h39v-66q49 -8 95.5 -27.5
t78.5 -49.5l-72 -101q-20 24 -46 42.5t-54 27.5v-209q80 -20 132.5 -66.5t52.5 -120.5zM426 451v156q-22 -11 -35.5 -33.5t-13.5 -46.5t12 -45zM520 420v205l-53 -4v-183zM524 84v205l-55 16v-221h55zM604 242q-19 23 -43 33v-181q30 19 46 42t16 51q0 27 -19 55z" />
    <glyph glyph-name="percent" unicode="%" 
d="M451 539q-8 -72 -63 -116t-125 -44q-71 0 -111 36.5t-54.5 72t-14.5 73.5q0 66 38.5 118.5t80.5 60t59 7.5q76 0 133.5 -54.5t57.5 -131.5q0 -15 -1 -22zM754 766l-443 -795h-79q81 140 155 271t139.5 249.5t149.5 274.5h78zM865 31q-28 -25 -60.5 -37.5t-69.5 -12.5
q-68 0 -121 41.5t-59.5 85.5t-6.5 59q0 74 58.5 127.5t135.5 53.5t126.5 -56t49.5 -131q0 -38 -12.5 -70t-40.5 -60zM320 629q-17 12 -30.5 15t-23.5 3q-39 0 -63 -26t-24 -61q0 -20 7.5 -37.5t24.5 -32.5q26 -18 52 -18q25 0 55 16q35 33 35 77q0 21 -7 35.5t-26 28.5z
M797 223q-29 24 -65 24q-8 0 -15.5 -2t-16.5 -7t-32 -19q-21 -22 -21 -56q0 -36 25.5 -63.5t63.5 -27.5q39 0 62 25t23 61t-24 65z" />
    <glyph glyph-name="ampersand" unicode="&#x26;" 
d="M853 0h-178l-64 82q-41 -44 -96 -69t-114 -25q-65 0 -122 32q-47 32 -73 80.5t-26 102.5q0 32 8.5 59t27.5 54q25 29 54 52.5t65 43.5q-74 69 -74 157q0 48 26 93q29 40 73.5 59.5t95.5 19.5q17 0 52 -4.5t83 -44t48 -97.5q0 -12 -2 -24t-9 -34t-15 -39
q-21 -28 -50 -52.5t-64 -45.5l129 -148l106 123l80 -88l-111 -117zM492 631q-15 11 -25.5 13t-18.5 2q-29 0 -48.5 -20.5t-19.5 -50.5q0 -12 2 -18q4 -8 4 -12l49 -80q32 28 56.5 59.5t24.5 60.5q0 27 -24 46zM539 160l-141 166q-35 -28 -57.5 -58.5t-22.5 -64.5q0 -7 2 -19
q12 -38 40.5 -59t63.5 -21q32 0 56.5 13.5t36 22.5t22.5 20z" />
    <glyph glyph-name="quotesingle" unicode="'" 
d="M613 740l-103 -293h-92l49 293h146z" />
    <glyph glyph-name="parenleft" unicode="(" 
d="M609 748q-35 -73 -60.5 -140t-40 -154t-14.5 -191q0 -79 19.5 -193.5t89.5 -258.5l-82 -32q-30 64 -56.5 133t-44.5 135q-10 51 -15 109t-5 115q0 153 39 305q19 53 40 98.5t52 104.5z" />
    <glyph glyph-name="parenright" unicode=")" 
d="M609 283q0 -48 -1.5 -74t-7.5 -88l-30 -137q-15 -45 -38.5 -99.5t-49.5 -105.5l-82 32q57 104 86.5 225.5t29.5 246.5q0 224 -88 426l-24 39l86 29q57 -124 88 -246t31 -248z" />
    <glyph glyph-name="asterisk" unicode="*" 
d="M673 625l-134 -59l130 -54l-39 -71q-33 19 -60 40t-53 46l16 -138h-84l15 134l-113 -80l-41 69l135 54l-135 59l45 72l111 -92l-17 145h84l-16 -139l113 86z" />
    <glyph glyph-name="plus" unicode="+" 
d="M697 250h-162v-213h-84v213h-166v86h166v209h86v-209h160v-86z" />
    <glyph glyph-name="comma" unicode="," 
d="M625 141l-109 -291h-90l49 291h150z" />
    <glyph glyph-name="hyphen" unicode="-" 
d="M632 182h-267v115h267v-115z" />
    <glyph glyph-name="hyphen" unicode="&#xad;" 
d="M632 182h-267v115h267v-115z" />
    <glyph glyph-name="period" unicode="." 
d="M415 -2q-21 -9 -41 -9q-34 0 -59 23t-25 58q0 4 1.5 14t6.5 20.5t7 16.5q25 31 63 31h15q33 -8 50.5 -30.5t17.5 -51.5q0 -42 -36 -72z" />
    <glyph glyph-name="slash" unicode="/" 
d="M685 756l-313 -768h-105q82 188 166 389.5t152 378.5h100z" />
    <glyph glyph-name="zero" unicode="0" 
d="M705 566q8 -49 12.5 -103.5t4.5 -101.5q0 -67 -8 -126.5t-28 -117.5q-28 -64 -82.5 -98.5t-125.5 -34.5h-16q-12 2 -65.5 11t-107.5 97q-24 54 -33.5 113t-9.5 129q0 56 3.5 97t14.5 124q14 63 49 113t91 68q26 7 47 10.5t41 3.5q82 0 138.5 -50.5t74.5 -133.5zM563 566
q-9 30 -33 47t-55 14q-37 -7 -55.5 -36t-23 -73.5t-8 -93.5t-3.5 -90q0 -97 14 -150.5t35 -68t47 -14.5q23 0 43 12q29 27 42.5 93t13.5 155q0 103 -17 205z" />
    <glyph glyph-name="one" unicode="1" 
d="M626 0h-140v617h-133v121h273v-738z" />
    <glyph glyph-name="two" unicode="2" 
d="M749 0h-473v39q80 88 153 185.5t122 176t49 130.5q0 16 -3 32.5t-10 34.5q-14 16 -34 25t-40 9q-31 0 -55 -17.5t-29 -42t-7 -39.5t-1 -27h-139q0 87 40 152.5t93 76.5t75.5 12t53.5 1h14q75 -9 124.5 -55.5t55.5 -87.5t6.5 -48.5t0.5 -17.5q0 -26 -4.5 -48.5
t-14.5 -52.5l-59 -104q-46 -64 -87.5 -114t-94.5 -103h264v-117z" />
    <glyph glyph-name="three" unicode="3" 
d="M709 129q-30 -64 -72.5 -99t-86 -40t-65.5 -5q-69 0 -127 29q-51 30 -75.5 78t-24.5 109h141q-1 -5 -1 -13q0 -38 27.5 -61.5t63.5 -23.5q24 0 44.5 10.5t33.5 32.5q14 30 14 65q0 36 -14 64t-43 41l-86 12v121q14 -2 22 -2q17 0 35 5t35 13q36 29 36 78q0 39 -21 65.5
t-58 26.5q-14 0 -49 -12t-35 -70h-133q0 93 72 144t172 51q52 0 100 -25.5t70 -72.5q18 -47 18 -96q0 -43 -17 -78t-42.5 -50.5t-44 -22t-37.5 -10.5q75 -6 117.5 -61.5t42.5 -129.5q0 -37 -12 -73z" />
    <glyph glyph-name="four" unicode="4" 
d="M702 141h-66v-141h-133v141h-268v127l274 478h129v-498h64v-107zM503 242v358l-188 -360z" />
    <glyph glyph-name="five" unicode="5" 
d="M713 615h-240l-31 -144q29 6 59 6q66 0 121.5 -28.5t81 -86.5t25.5 -117q0 -78 -41.5 -141.5t-104 -89.5t-108.5 -26q-111 0 -213 43l35 135q8 3 18 -4q21 -28 52.5 -43.5t66.5 -15.5q59 0 105.5 38.5t46.5 100.5q0 10 -4.5 33.5t-34 53t-56 33.5t-34 4.5t-11.5 0.5
q-33 0 -60 -8.5t-61 -26.5l-28 10l71 396h345v-123z" />
    <glyph glyph-name="six" unicode="6" 
d="M725 295q6 -30 6 -61q0 -78 -34 -140t-94.5 -85.5t-113.5 -23.5q-70 0 -126.5 32.5t-82.5 95.5q-13 38 -18.5 68t-5.5 65q0 26 9.5 71.5t34 106t60.5 123.5l121 191h160l-209 -306l-2 -8q24 17 48.5 24t52.5 7q68 0 122.5 -44.5t71.5 -115.5zM584 160q9 24 9 54
q0 50 -25.5 87.5t-72.5 37.5q-10 0 -34 -3t-49 -40.5t-25 -83.5q0 -42 21 -75t43.5 -36.5t33.5 -3.5q32 0 57 16t42 47z" />
    <glyph glyph-name="seven" unicode="7" 
d="M767 693l-309 -714l-129 42l262 590h-299v127h475v-45z" />
    <glyph glyph-name="eight" unicode="8" 
d="M711 129q-26 -64 -77.5 -100.5t-123.5 -42.5q-83 0 -145 26t-97 90q-20 49 -20 100q0 64 32.5 113.5t96.5 67.5l12 2q-60 18 -93.5 60t-33.5 104q0 63 33.5 112.5t93.5 72.5q26 8 46 12t40 4q90 0 161 -46.5t71 -129.5q1 -12 1 -18q0 -61 -35.5 -110.5t-94.5 -58.5
q68 -18 106.5 -69.5t38.5 -117.5q0 -35 -12 -71zM574 514q2 16 2 23q0 42 -23.5 71t-66.5 29q-44 0 -69 -30t-25 -70q0 -39 24.5 -68.5t67.5 -29.5q32 0 59 21.5t31 53.5zM586 209q0 47 -30.5 76.5t-74.5 29.5q-6 0 -20 -2q-38 -11 -58.5 -42t-20.5 -70q0 -36 18 -63.5
t39 -33.5t28 -7t16 -1q45 0 74 32t29 81z" />
    <glyph glyph-name="nine" unicode="9" 
d="M719 576q6 -36 6 -72q0 -66 -20 -135l-199 -369h-168l215 314q-51 -29 -107 -29q-53 0 -96.5 26.5t-71.5 77.5q-27 56 -27 118q0 79 42.5 143.5t118.5 87.5q20 4 44 7t44 3q80 0 138.5 -46.5t80.5 -125.5zM582 457q9 26 9 55q0 49 -27.5 84t-80.5 35q-45 -5 -69 -39.5
t-24 -79.5q0 -49 26.5 -85t70.5 -36q13 0 33 5.5t35.5 21t26.5 39.5z" />
    <glyph glyph-name="colon" unicode=":" 
d="M463 309q-24 -37 -68 -37q-27 0 -50 15.5t-27.5 33t-4.5 33.5q0 31 15.5 53t38.5 25.5t28 3.5q34 0 57.5 -24.5t23.5 -57.5q0 -23 -13 -45zM444 8q-26 -15 -51 -15q-55 0 -78 54q-3 14 -3 26q0 32 18.5 55t37.5 26t23 3h6q35 0 55.5 -24t20.5 -58q0 -39 -29 -67z" />
    <glyph glyph-name="semicolon" unicode=";" 
d="M405 281q-20 -6 -37 -6q-29 0 -51 16.5t-26 35t-4 27.5q0 36 25 60t62 24q34 -4 55 -30t21 -58q0 -24 -10.5 -41t-34.5 -28zM458 139l-106 -291h-92l49 291h149z" />
    <glyph glyph-name="less" unicode="&#x3c;" 
d="M629 395l-230 -161l226 -171l-72 -52l-261 223l261 216z" />
    <glyph glyph-name="equal" unicode="=" 
d="M642 338h-317v74h317v-74zM642 172h-317v72h317v-72z" />
    <glyph glyph-name="greater" unicode="&#x3e;" 
d="M679 239l-261 -223l-72 52l226 171l-230 161l76 55z" />
    <glyph glyph-name="question" unicode="?" 
d="M696 559q0 -77 -26 -132.5t-62.5 -70t-49.5 -18t-22 -4.5v-109h-131v189q35 0 63 6t49 23q16 18 27 47t11 57q0 35 -16 58.5t-52 29.5q-8 1 -11 1q-30 0 -51 -19.5t-31 -50.5q-1 -7 -1 -19q0 -13 1 -20h-137q0 61 23.5 112t71.5 84q3 1 29.5 11t45 14t45.5 4
q91 0 157.5 -51.5t66.5 -141.5zM507 -6q-18 -6 -35 -6q-31 0 -53 18t-29 53q0 36 24.5 62.5t62.5 26.5q35 0 56.5 -26t21.5 -61q0 -23 -11.5 -41t-36.5 -26z" />
    <glyph glyph-name="at" unicode="@" 
d="M856 453q0 -63 -16 -118t-48 -97.5t-72.5 -64t-79.5 -21.5q-21 0 -39 17t-24 41q-22 -25 -54 -41.5t-74 -16.5q-67 0 -117.5 54.5t-50.5 131.5q0 97 57 169.5t147 72.5q40 0 70 -14.5t53 -47.5l10 53h96l-50 -261q-4 -22 -7 -44q0 -25 19 -22q29 3 63.5 58.5t34.5 115.5
q0 125 -74.5 194t-194.5 69q-125 0 -205 -86t-80 -218q0 -136 85.5 -219.5t216.5 -83.5q60 0 106 11.5t74 28.5l82 -66q-58 -30 -127 -49t-143 -19q-164 0 -276 113t-112 284q0 169 110.5 283.5t271.5 114.5q67 0 127 -21.5t110.5 -66.5t80.5 -105t30 -129zM571 372
q1 6 1 16q0 35 -20 58t-53 23q-40 0 -69 -36t-29 -79q0 -39 20 -65.5t56 -26.5q42 0 65.5 32.5t28.5 77.5z" />
    <glyph glyph-name="A" unicode="A" 
d="M857 0h-162l-51 158h-271l-47 -158h-156l263 740h163zM605 275l-93 338l-96 -338h189z" />
    <glyph glyph-name="B" unicode="B" 
d="M752 121q-34 -55 -88.5 -88t-116.5 -33h-244v738h264q76 -9 130 -59.5t54 -122.5q0 -14 -10 -70t-102 -86l-33 -9q73 -8 120.5 -61.5t47.5 -123.5q0 -44 -22 -85zM610 523q0 52 -38.5 75t-96.5 23l-23 -4v-178q10 -1 17.5 -1.5t13.5 -0.5q53 0 90 19.5t37 66.5zM623 197
q2 14 2 20q0 48 -38 74.5t-92 26.5q-11 0 -18.5 -0.5t-24.5 -3.5v-199q19 -4 44 -4q47 0 83 20.5t44 65.5z" />
    <glyph glyph-name="C" unicode="C" 
d="M779 43l-92 -41q-34 -8 -65 -12t-65 -4q-98 0 -179 37t-136 116q-36 46 -53.5 101t-17.5 117q0 129 72 238.5t149.5 130t95 23.5t33.5 3q23 3 46 3q53 0 106 -13.5t104 -38.5v-166q-10 -2 -23 4q-34 42 -80 62.5t-99 20.5q-60 0 -115 -26.5t-91 -74.5q-23 -35 -34 -75
t-11 -84q0 -79 38.5 -143.5t110.5 -89.5q48 -14 89 -14q93 0 178 65l27 25h12v-164z" />
    <glyph glyph-name="D" unicode="D" 
d="M820 451q3 -16 5 -41t2 -42q0 -75 -24.5 -140.5t-77.5 -123.5q-43 -41 -95 -69t-108 -35h-319v738h324q114 -14 193.5 -93.5t99.5 -193.5zM660 477q-53 112 -172 134h-136v-490h125q93 14 148.5 85t55.5 164q0 54 -21 107z" />
    <glyph glyph-name="E" unicode="E" 
d="M694 320h-267v-191h265v-129h-414v740h414v-127h-263v-172h265v-121z" />
    <glyph glyph-name="F" unicode="F" 
d="M723 320h-268v-320h-148v740h416v-127h-268v-172h268v-121z" />
    <glyph glyph-name="G" unicode="G" 
d="M888 385q0 -153 -91.5 -267t-171.5 -124t-93.5 -10h-20.5q-117 0 -212 57.5t-145 165.5q-32 78 -32 159q0 23 8 84t61.5 141.5t140.5 123.5q43 18 92 29t95 11q23 0 75.5 -6t122.5 -44.5t117 -102.5l-118 -90q-34 53 -88.5 81.5t-115.5 28.5q-55 0 -102.5 -22.5
t-78.5 -64t-44 -83t-13 -84.5q0 -73 36 -136.5t102 -96.5q48 -21 97 -21q67 0 125 35t90 97l6 14h-162v125h320z" />
    <glyph glyph-name="H" unicode="H" 
d="M793 0h-147v330h-310v-330h-149v740h149v-285h310v285h147v-740z" />
    <glyph glyph-name="I" unicode="I" 
d="M560 0h-146v740h146v-740z" />
    <glyph glyph-name="J" unicode="J" 
d="M626 156q0 -78 -55.5 -125t-129.5 -47q-49 0 -88.5 21t-64.5 65q-9 24 -11 29.5t-6 23.5l115 61q5 -27 19 -52t34 -25q13 0 26 13t13 28v592h148v-584z" />
    <glyph glyph-name="K" unicode="K" 
d="M789 2h-188l-230 377v-379h-147v740h147v-330l230 330h182l-256 -338z" />
    <glyph glyph-name="L" unicode="L" 
d="M710 0h-383v740h146v-611h237v-129z" />
    <glyph glyph-name="M" unicode="M" 
d="M932 0h-154l-54 598l-182 -598h-86l-184 609l-58 -609h-147l110 740h162l164 -541l152 541h168z" />
    <glyph glyph-name="N" unicode="N" 
d="M831 0h-148l-373 568v-568h-141v740h152l375 -564v564h135v-740z" />
    <glyph glyph-name="O" unicode="O" 
d="M904 387q0 -164 -111 -283t-271 -119q-168 0 -293 104.5t-125 263.5q0 164 111 283t272 119q169 0 293 -104.5t124 -263.5zM759 367q0 106 -75.5 179.5t-181.5 73.5t-179.5 -75.5t-73.5 -181.5q0 -105 76 -179t182 -74t179 75t73 182z" />
    <glyph glyph-name="P" unicode="P" 
d="M731 418q-30 -59 -78 -92.5t-115 -42.5h-88v-283h-149v740l244 -2q90 0 147 -68.5t57 -159.5q0 -48 -18 -92zM600 508q0 57 -41 84t-100 27l-13 -2v-217q18 -2 27 -2q53 0 90 28.5t37 81.5z" />
    <glyph glyph-name="Q" unicode="Q" 
d="M911 -76h-164l-78 90q-77 -34 -165 -34q-140 0 -254.5 80.5t-130 158t-17.5 97.5t-2 44q0 77 25 144.5t74 119t107 84t121 42.5q45 5 80 5q16 0 32 -1t91 -10.5t170.5 -105t106.5 -228.5q0 -107 -32 -193.5t-106 -140.5zM739 469q-31 74 -100 112t-154 38
q-101 0 -167 -76t-66 -178q0 -20 8 -70.5t64 -109t101 -65t54.5 -7t22.5 -0.5q36 0 79 8l-119 125h162l53 -66q41 27 61 76t20 108q0 56 -19 105z" />
    <glyph glyph-name="R" unicode="R" 
d="M774 0h-178l-189 342v-342h-149v740l274 -2q81 0 138 -62t57 -145q0 -35 -12 -70q-19 -50 -57.5 -82.5t-90.5 -38.5zM534 598q-25 14 -51 17h-78v-195h95q34 10 55.5 38.5t21.5 61.5q0 23 -10.5 43t-32.5 35z" />
    <glyph glyph-name="S" unicode="S" 
d="M698 666l-90 -102q-21 31 -50 48.5t-61 17.5q-36 0 -68 -23q-26 -26 -26 -59q0 -39 39 -69l160 -79q52 -30 79.5 -80t27.5 -108q0 -47 -19.5 -92t-57.5 -79q-73 -53 -170 -53q-89 0 -158 45q-33 24 -59 53l80 107q31 -37 65 -59.5t72 -22.5q28 0 57 16q46 23 46 78
q0 33 -11.5 46t-22 21t-16.5 13l-166 82q-86 74 -86 171q0 9 1.5 22t13 57t70.5 91.5t141 47.5q61 0 116.5 -22.5t92.5 -67.5z" />
    <glyph glyph-name="T" unicode="T" 
d="M750 613h-187v-613h-149v613h-187v127h523v-127z" />
    <glyph glyph-name="U" unicode="U" 
d="M804 225q-14 -98 -82 -158t-169 -81h-118q-95 10 -162.5 76.5t-79.5 160.5l3 517h148v-502l25 -60q22 -31 54 -46.5t70 -15.5q45 0 84 22.5t54 52t19 43.5t4 32v474h150v-515z" />
    <glyph glyph-name="V" unicode="V" 
d="M803 740l-239 -740h-156l-236 740h160l156 -601l162 601h153z" />
    <glyph glyph-name="W" unicode="W" 
d="M993 740l-198 -740h-146l-139 605l-137 -605h-152l-189 740h152l117 -584l135 584h150l143 -582l113 582h151z" />
    <glyph glyph-name="X" unicode="X" 
d="M756 0h-172l-121 293l-125 -291h-162l199 381l-197 357h177l114 -271l115 271h168l-193 -363z" />
    <glyph glyph-name="Y" unicode="Y" 
d="M774 740l-213 -408v-332h-149v332l-216 408h170l127 -299l117 299h164z" />
    <glyph glyph-name="Z" unicode="Z" 
d="M762 0h-556l339 615h-316v125h529l-332 -617h336v-123z" />
    <glyph glyph-name="bracketleft" unicode="[" 
d="M605 -211h-221v969h221v-102h-100v-767h100v-100z" />
    <glyph glyph-name="backslash" unicode="\" 
d="M733 -14h-103l-385 653h111z" />
    <glyph glyph-name="bracketright" unicode="]" 
d="M594 -211h-221v100h98v767h-98v102h221v-969z" />
    <glyph glyph-name="asciicircum" unicode="^" 
d="M615 541h-84l-68 82l-69 -82h-84l104 139h102z" />
    <glyph glyph-name="underscore" unicode="_" 
d="M999 -53l3 -47h-1002v47h999z" />
    <glyph glyph-name="grave" unicode="`" 
d="M564 541h-82l-127 139h127z" />
    <glyph glyph-name="a" unicode="a" 
d="M703 0h-127v102q-23 -54 -67.5 -84.5t-98.5 -30.5q-26 0 -49.5 6t-60.5 30t-64 82t-27 124q0 101 57 175.5t156 74.5q50 0 94 -32t60 -82v102h127v-467zM559 150q18 35 18 76q0 55 -31.5 96.5t-84.5 41.5q-9 0 -35.5 -3.5t-52.5 -40t-26 -85.5q0 -56 31.5 -98t84.5 -42
q9 0 24 3t36.5 17t35.5 35z" />
    <glyph glyph-name="b" unicode="b" 
d="M733 221q-8 -93 -59.5 -163t-136.5 -70q-118 0 -170 108l2 -96h-132v787h136v-412q26 49 67.5 77t93.5 28q14 0 61.5 -6t92.5 -81.5t45 -171.5zM576 162q12 30 12 66q0 56 -28.5 95.5t-84.5 39.5q-53 0 -81.5 -38t-28.5 -93t28.5 -95t78.5 -40q12 0 46.5 9t57.5 56z" />
    <glyph glyph-name="c" unicode="c" 
d="M660 320q-5 -2 -17 2q-19 21 -46 32.5t-56 11.5q-39 0 -72 -18.5t-51 -54.5q-12 -30 -12 -63q0 -41 19 -73t43.5 -41.5t40.5 -12.5t26 -3q65 0 110 46l13 2v-134q-66 -23 -139 -23q-85 0 -150 37.5t-84 98.5t-19 103q0 128 105 208q18 10 35 18.5t34 14.5q21 5 53 7t60 2
q32 0 55.5 -6.5t51.5 -16.5v-137z" />
    <glyph glyph-name="d" unicode="d" 
d="M721 2h-129v92q-24 -49 -65.5 -78t-92.5 -29q-14 0 -64.5 8t-96.5 75.5t-46 155.5q0 72 29.5 134.5t85.5 96.5q43 22 90 22q48 0 89 -24.5t65 -69.5v402h135v-785zM575 154q17 37 17 76q0 48 -24 85t-53.5 43t-40.5 6q-48 0 -76 -42t-28 -95t33 -91t80 -38q30 0 59 19
q19 15 33 37z" />
    <glyph glyph-name="e" unicode="e" 
d="M711 201h-338q8 -49 37 -79t73 -30h18q9 3 23 6.5t32.5 19t29.5 38.5l111 -51q-36 -56 -94 -87.5t-124 -31.5q-37 0 -70 9t-73.5 36.5t-66 82.5t-25.5 116q0 101 59.5 176.5t159.5 75.5q16 1 24 1q72 0 129.5 -39t78.5 -108q16 -72 16 -135zM586 281q-5 37 -30 66.5
t-46 33t-29 3.5q-41 0 -71 -30t-37 -73h213z" />
    <glyph glyph-name="f" unicode="f" 
d="M645 355h-88v-355h-139v355l-63 2v104h65v209q6 56 51.5 87.5t104.5 31.5q7 0 15.5 -1t12.5 -1l41 -10v-111q-18 9 -35 9q-24 0 -38.5 -17.5t-14.5 -48.5v-144h88v-110z" />
    <glyph glyph-name="g" unicode="g" 
d="M720 -57q0 -72 -50 -118.5t-102 -53.5t-66.5 -7.5t-22.5 -0.5q-93 0 -158.5 39t-65.5 124h145q-4 -33 23 -49t65 -16q22 0 39 5t35 22t29 38v170q-22 -50 -66 -76.5t-97 -26.5q-45 0 -88 21.5t-79 75t-36 139.5q0 72 33.5 135t94.5 97q38 18 76 18q54 0 98 -29t66 -77v94
h127v-524zM572 146q10 16 16 39t6 44q0 51 -25 89t-73 43q-9 2 -25 2q-48 0 -75 -37.5t-27 -88.5q0 -57 30 -97t87 -40q25 0 47 12.5t39 33.5z" />
    <glyph glyph-name="h" unicode="h" 
d="M703 0h-140v305q-3 29 -23.5 46.5t-46.5 17.5q-37 0 -59 -31q-7 -13 -12 -23.5t-6 -21.5v-293h-138v787h134v-394q17 41 56.5 64t85.5 23q44 0 78.5 -18.5t53.5 -57.5q7 -21 11 -37.5t6 -34.5v-332z" />
    <glyph glyph-name="i" unicode="i" 
d="M535 604q-21 -8 -44 -8q-32 0 -54.5 17t-22.5 51q-1 10 1 23t3 20q12 23 32 35t45 12q6 0 18 -2q27 -9 43.5 -32.5t16.5 -50.5q0 -42 -38 -65zM562 0h-137v465h137v-465z" />
    <glyph glyph-name="j" unicode="j" 
d="M541 607q-19 -13 -49 -13q-28 0 -49 13t-24.5 33t-3.5 33q0 36 19 59.5t56 23.5q36 0 60.5 -25.5t24.5 -59.5q0 -39 -34 -64zM564 -229h-139v694h139v-694z" />
    <glyph glyph-name="k" unicode="k" 
d="M756 0h-172l-164 242l2 -242h-133v787h133v-523l158 205h168l-177 -205l2 -12z" />
    <glyph glyph-name="l" unicode="l" 
d="M560 0h-137v787h137v-787z" />
    <glyph glyph-name="m" unicode="m" 
d="M865 0h-139v311q-6 27 -25.5 42.5t-43.5 15.5q-38 0 -54.5 -27t-16.5 -49v-293h-139v295q0 34 -19.5 54.5t-46.5 20.5q-33 0 -57 -30q-7 -12 -12 -23.5t-6 -23.5v-293h-138v469h129v-82q27 45 60.5 68.5t81.5 23.5q47 0 79.5 -20.5t55.5 -63.5q22 40 63 62.5t88 22.5
q54 0 83 -22t40.5 -48t16.5 -51v-359z" />
    <glyph glyph-name="n" unicode="n" 
d="M701 0h-136v316q-4 12 -12 24.5t-18 20.5q-17 7 -34 7q-31 0 -53.5 -23t-33.5 -60v-285h-136v467h134v-80q17 40 50.5 65t74.5 25q6 1 17 1q55 0 96.5 -30t50.5 -83v-365z" />
    <glyph glyph-name="o" unicode="o" 
d="M743 182q-18 -78 -77 -131.5t-103 -60t-55 -6.5h-17q-35 0 -94.5 9t-115.5 81t-56 162q0 38 10 72.5t40 78t92 71.5t132 28q106 0 177.5 -73.5t71.5 -178.5q0 -22 -5 -52zM590 156q8 17 12.5 37t4.5 41q0 56 -31 96.5t-87 40.5t-91.5 -43.5t-35.5 -100.5q0 -67 39 -101
t83 -34q34 0 62.5 16.5t43.5 47.5z" />
    <glyph glyph-name="p" unicode="p" 
d="M727 131q-26 -65 -76 -102.5t-116 -37.5q-15 0 -30.5 2t-43 14t-45.5 32t-31 49v-315h-136v694h130l-2 -100q21 51 67.5 82t102.5 31q11 -1 16 -1q89 -10 133 -81t44 -166q0 -56 -13 -101zM579 146q22 38 22 85q0 49 -24.5 87t-50.5 41t-38 3q-52 0 -81 -37.5t-29 -91.5
q0 -38 15.5 -71.5t46.5 -52.5q24 -9 47 -9q26 0 49 11.5t43 34.5z" />
    <glyph glyph-name="q" unicode="q" 
d="M727 -227h-137v315q-24 -48 -65 -73.5t-90 -25.5q-56 0 -108 34q-47 38 -70.5 92t-23.5 115q0 108 65 188q29 31 71.5 46t90.5 15q47 -6 84.5 -37.5t53.5 -76.5v102h129v-694zM581 152q19 34 19 76q0 55 -32.5 95t-90.5 40q-49 -6 -76 -44t-27 -88q0 -43 19 -76.5
t57 -49.5q16 -5 37 -5q56 0 94 52z" />
    <glyph glyph-name="r" unicode="r" 
d="M677 473l-18 -145q-30 12 -58 12q-34 0 -58.5 -18t-33.5 -54l-4 -20v-248h-137v467h137v-117q10 52 45.5 91t85.5 39q10 0 16 -1z" />
    <glyph glyph-name="s" unicode="s" 
d="M682 129q-7 -65 -54 -103t-113 -38q-40 0 -64 4l-36 6q-69 25 -108 86l106 59q7 -27 32 -44.5t54 -17.5q17 0 32 7.5t25 24.5q2 10 2 13q0 24 -22 40l-146 59q-32 19 -48.5 49t-16.5 65q0 33 15 62.5t46 49.5q26 19 60 26t76 7q52 0 91.5 -24.5t68.5 -70.5l-103 -49
q-5 24 -28.5 39.5t-50.5 15.5q-40 0 -56 -34q-2 -8 2 -25q9 -16 42 -29.5t84 -32.5q111 -50 111 -131q0 -9 -1 -14z" />
    <glyph glyph-name="t" unicode="t" 
d="M631 357h-79v-357h-138v357h-69v104h71v158h136v-156h79v-106z" />
    <glyph glyph-name="u" unicode="u" 
d="M695 154q0 -80 -61.5 -125t-146.5 -45q-55 0 -101.5 18.5t-78.5 56.5q-20 30 -30 68v342h133v-299q0 -31 24.5 -52.5t54.5 -21.5q39 0 56 37q10 28 10 53v283h140v-315z" />
    <glyph glyph-name="v" unicode="v" 
d="M727 469l-173 -469h-135l-174 469h148l94 -346l94 346h146z" />
    <glyph glyph-name="w" unicode="w" 
d="M875 469l-156 -467h-133l-80 346l-82 -348h-129l-156 469h144l84 -340l71 340h138l76 -340l80 340h143z" />
    <glyph glyph-name="x" unicode="x" 
d="M760 0h-164l-82 164l-82 -164h-152l154 236l-150 233h162l72 -156l76 156h157l-153 -229z" />
    <glyph glyph-name="y" unicode="y" 
d="M719 469l-267 -696h-147l108 260l-176 436h150l96 -317l90 317h146z" />
    <glyph glyph-name="z" unicode="z" 
d="M700 0h-436v16l237 341h-219v112h416v-26l-230 -332h232v-111z" />
    <glyph glyph-name="braceleft" unicode="{" 
d="M629 691h-82q-14 -7 -18 -13v-285q-12 -34 -31 -58.5t-51 -33.5q30 -17 53 -42t29 -54v-277q7 -11 18 -18h62v-66h-111q-33 12 -55 37q-8 12 -12.5 25.5t-4.5 27.5v296q-9 25 -28 45l-47 28q31 14 59 39q5 10 8.5 22t3.5 23v289q14 37 45 66q10 6 26 11.5t32 8.5h104v-71
z" />
    <glyph glyph-name="bar" unicode="|" 
d="M534 -12h-82v651h82v-651z" />
    <glyph glyph-name="braceright" unicode="}" 
d="M645 303l-45 -28q-11 -11 -18 -22t-11 -23v-296q0 -31 -20.5 -55.5t-50.5 -34.5h-111v66h62q11 7 18 18v277q6 30 26.5 52t53.5 44q-30 11 -48 33t-32 59v285q-4 6 -18 13h-82v71h30.5t31.5 1q29 0 53 -4t48 -17q31 -31 43 -66v-289q0 -24 13 -45q12 -12 25.5 -21
t31.5 -18z" />
    <glyph glyph-name="asciitilde" unicode="~" 
d="M718 426q-7 -63 -47.5 -103.5t-98.5 -40.5q-15 0 -30 3l-115 40q-4 1 -12 1q-26 0 -47 -14.5t-24 -39.5h-59q4 35 16.5 64t35.5 54q20 13 41.5 19t41.5 6q32 0 74 -13q39 -14 62 -21.5t36 -7.5q23 0 40 14t20 39h66z" />
    <glyph glyph-name="Adieresis" unicode="&#xc4;" 
d="M857 -5h-162l-51 158h-271l-47 -158h-156l263 740h163zM605 270l-93 338l-96 -338h189zM620 930q33 0 56.5 -23.5t23.5 -56.5t-23.5 -56.5t-56.5 -23.5t-56.5 23.5t-23.5 56.5t23.5 56.5t56.5 23.5zM405 930q33 0 56.5 -23.5t23.5 -56.5t-23.5 -56.5t-56.5 -23.5
t-56.5 23.5t-23.5 56.5t23.5 56.5t56.5 23.5z" />
    <glyph glyph-name="Aring" unicode="&#xc5;" 
d="M852 -5h-162l-51 158h-271l-47 -158h-156l263 740h163zM600 270l-93 338l-96 -338h189zM614 896q0 -51 -29.5 -87.5t-79.5 -36.5q-49 0 -79 37t-30 87q0 51 29.5 87.5t79.5 36.5t79.5 -36t29.5 -88zM536 896q0 19 -7 33t-24 14t-24 -13.5t-7 -33.5q0 -19 7 -33t24 -14
t24 13.5t7 33.5z" />
    <glyph glyph-name="Ccedilla" unicode="&#xc7;" 
d="M468 10q-67 13 -125.5 49t-99.5 95q-36 46 -53.5 101t-17.5 117q0 129 72 238.5t149.5 130t95 23.5t33.5 3q23 3 46 3q53 0 106 -13.5t104 -38.5v-166q-10 -2 -23 4q-34 42 -80 62.5t-99 20.5q-60 0 -115 -26.5t-91 -74.5q-23 -35 -34 -75t-11 -84q0 -79 38.5 -143.5
t110.5 -89.5q48 -14 89 -14q93 0 178 65l27 25h12v-164l-92 -41q-67 -16 -129 -16h-24q-11 2 -15 2l-13 -19h16q38 0 55.5 -18.5t17.5 -43.5q0 -6 -5.5 -31.5t-44.5 -50.5t-100 -25l-29 3q-12 1 -25 4.5t-40 13.5l37 54l25 -7l15 -4l21 -2q16 0 24 4t13.5 8t7.5 15
q2 10 -0.5 12.5t-13.5 2.5l-18 -1l-23 -4l-18 18z" />
    <glyph glyph-name="Eacute" unicode="&#xc9;" 
d="M689 325h-267v-191h265v-129h-414v740h414v-127h-263v-172h265v-121zM635 920l-133 -139h-76l80 139h129z" />
    <glyph glyph-name="Ntilde" unicode="&#xd1;" 
d="M826 -5h-148l-373 568v-568h-141v740h152l375 -564v564h135v-740zM721 930q-7 -63 -46 -103t-98 -40q-15 0 -30 3l-114 40q-4 1 -12 1q-25 0 -46 -15t-24 -39h-59q4 34 16.5 63.5t35.5 53.5q39 25 82 25q35 0 78 -15t61 -21t31 -6q24 0 40.5 14t18.5 39h66z" />
    <glyph glyph-name="Odieresis" unicode="&#xd6;" 
d="M894 397q0 -164 -111 -283t-271 -119q-168 0 -293 104.5t-125 263.5q0 164 111 283t272 119q169 0 293 -104.5t124 -263.5zM749 377q0 106 -75.5 179.5t-181.5 73.5t-179.5 -75.5t-73.5 -181.5q0 -105 76 -179t182 -74t179 75t73 182zM595 960q33 0 56.5 -23.5
t23.5 -56.5t-23.5 -56.5t-56.5 -23.5t-56.5 23.5t-23.5 56.5t23.5 56.5t56.5 23.5zM380 960q33 0 56.5 -23.5t23.5 -56.5t-23.5 -56.5t-56.5 -23.5t-56.5 23.5t-23.5 56.5t23.5 56.5t56.5 23.5z" />
    <glyph glyph-name="Udieresis" unicode="&#xdc;" 
d="M799 230q-14 -98 -82 -158t-169 -81h-118q-95 10 -162.5 76.5t-79.5 160.5l3 517h148v-502l25 -60q22 -31 54 -46.5t70 -15.5q45 0 84 22.5t54 52t19 43.5t4 32v474h150v-515zM600 950q33 0 56.5 -23.5t23.5 -56.5t-23.5 -56.5t-56.5 -23.5t-56.5 23.5t-23.5 56.5
t23.5 56.5t56.5 23.5zM385 950q33 0 56.5 -23.5t23.5 -56.5t-23.5 -56.5t-56.5 -23.5t-56.5 23.5t-23.5 56.5t23.5 56.5t56.5 23.5z" />
    <glyph glyph-name="aacute" unicode="&#xe1;" 
d="M708 5h-127v102q-23 -54 -67.5 -84.5t-98.5 -30.5q-26 0 -49.5 6t-60.5 30t-64 82t-27 124q0 101 57 175.5t156 74.5q50 0 94 -32t60 -82v102h127v-467zM564 155q18 35 18 76q0 55 -31.5 96.5t-84.5 41.5q-9 0 -35.5 -3.5t-52.5 -40t-26 -85.5q0 -56 31.5 -98t84.5 -42
q9 0 24 3t36.5 17t35.5 35zM640 700l-133 -139h-76l80 139h129z" />
    <glyph glyph-name="agrave" unicode="&#xe0;" 
d="M708 10h-127v102q-23 -54 -67.5 -84.5t-98.5 -30.5q-26 0 -49.5 6t-60.5 30t-64 82t-27 124q0 101 57 175.5t156 74.5q50 0 94 -32t60 -82v102h127v-467zM564 160q18 35 18 76q0 55 -31.5 96.5t-84.5 41.5q-9 0 -35.5 -3.5t-52.5 -40t-26 -85.5q0 -56 31.5 -98t84.5 -42
q9 0 24 3t36.5 17t35.5 35zM479 561h-82l-127 139h127z" />
    <glyph glyph-name="acircumflex" unicode="&#xe2;" 
d="M713 10h-127v102q-23 -54 -67.5 -84.5t-98.5 -30.5q-26 0 -49.5 6t-60.5 30t-64 82t-27 124q0 101 57 175.5t156 74.5q50 0 94 -32t60 -82v102h127v-467zM569 160q18 35 18 76q0 55 -31.5 96.5t-84.5 41.5q-9 0 -35.5 -3.5t-52.5 -40t-26 -85.5q0 -56 31.5 -98t84.5 -42
q9 0 24 3t36.5 17t35.5 35zM639 566h-84l-68 82l-69 -82h-84l104 139h102z" />
    <glyph glyph-name="adieresis" unicode="&#xe4;" 
d="M708 10h-127v102q-23 -54 -67.5 -84.5t-98.5 -30.5q-26 0 -49.5 6t-60.5 30t-64 82t-27 124q0 101 57 175.5t156 74.5q50 0 94 -32t60 -82v102h127v-467zM564 160q18 35 18 76q0 55 -31.5 96.5t-84.5 41.5q-9 0 -35.5 -3.5t-52.5 -40t-26 -85.5q0 -56 31.5 -98t84.5 -42
q9 0 24 3t36.5 17t35.5 35zM565 700q33 0 56.5 -23.5t23.5 -56.5t-23.5 -56.5t-56.5 -23.5t-56.5 23.5t-23.5 56.5t23.5 56.5t56.5 23.5zM350 700q33 0 56.5 -23.5t23.5 -56.5t-23.5 -56.5t-56.5 -23.5t-56.5 23.5t-23.5 56.5t23.5 56.5t56.5 23.5z" />
    <glyph glyph-name="atilde" unicode="&#xe3;" 
d="M713 20h-127v102q-23 -54 -67.5 -84.5t-98.5 -30.5q-26 0 -49.5 6t-60.5 30t-64 82t-27 124q0 101 57 175.5t156 74.5q50 0 94 -32t60 -82v102h127v-467zM569 170q18 35 18 76q0 55 -31.5 96.5t-84.5 41.5q-9 0 -35.5 -3.5t-52.5 -40t-26 -85.5q0 -56 31.5 -98t84.5 -42
q9 0 24 3t36.5 17t35.5 35zM696 700q-7 -63 -46 -103t-98 -40q-15 0 -30 3l-114 40q-4 1 -12 1q-25 0 -46 -15t-24 -39h-59q4 34 16.5 63.5t35.5 53.5q39 25 82 25q35 0 78 -15t61 -21t31 -6q24 0 40.5 14t18.5 39h66z" />
    <glyph glyph-name="aring" unicode="&#xe5;" 
d="M708 5h-127v102q-23 -54 -67.5 -84.5t-98.5 -30.5q-26 0 -49.5 6t-60.5 30t-64 82t-27 124q0 101 57 175.5t156 74.5q50 0 94 -32t60 -82v102h127v-467zM564 155q18 35 18 76q0 55 -31.5 96.5t-84.5 41.5q-9 0 -35.5 -3.5t-52.5 -40t-26 -85.5q0 -56 31.5 -98t84.5 -42
q9 0 24 3t36.5 17t35.5 35zM554 666q0 -51 -29.5 -87.5t-79.5 -36.5q-49 0 -79 37t-30 87q0 51 29.5 87.5t79.5 36.5t79.5 -36t29.5 -88zM476 666q0 19 -7 33t-24 14t-24 -13.5t-7 -33.5q0 -19 7 -33t24 -14t24 13.5t7 33.5z" />
    <glyph glyph-name="ccedilla" unicode="&#xe7;" 
d="M401 4q-50 18 -84 51t-48.5 81t-14.5 90q0 128 105 208q18 10 35 18.5t34 14.5q21 5 53 7t60 2q32 0 55.5 -6.5t51.5 -16.5v-137q-5 -2 -17 2q-19 21 -46 32.5t-56 11.5q-39 0 -72 -18.5t-51 -54.5q-12 -30 -12 -63q0 -41 19 -73t43.5 -41.5t40.5 -12.5t26 -3
q65 0 110 46l13 2v-134q-67 -23 -139 -23q-18 0 -28 1t-31 4l-5 -8h16q38 0 55.5 -18.5t17.5 -43.5q0 -6 -5.5 -31.5t-44.5 -50.5t-100 -25l-29 3q-12 1 -25 4.5t-40 13.5l37 54l25 -7l15 -4l21 -2q16 0 24 4t13.5 8t7.5 15q2 10 -0.5 12.5t-13.5 2.5l-18 -1l-23 -4l-18 18z
" />
    <glyph glyph-name="eacute" unicode="&#xe9;" 
d="M716 206h-338q8 -49 37 -79t73 -30h18q9 3 23 6.5t32.5 19t29.5 38.5l111 -51q-36 -56 -94 -87.5t-124 -31.5q-37 0 -70 9t-73.5 36.5t-66 82.5t-25.5 116q0 101 59.5 176.5t159.5 75.5q16 1 24 1q72 0 129.5 -39t78.5 -108q16 -72 16 -135zM591 286q-5 37 -30 66.5
t-46 33t-29 3.5q-41 0 -71 -30t-37 -73h213zM655 690l-133 -139h-76l80 139h129z" />
    <glyph glyph-name="egrave" unicode="&#xe8;" 
d="M721 211h-338q8 -49 37 -79t73 -30h18q9 3 23 6.5t32.5 19t29.5 38.5l111 -51q-36 -56 -94 -87.5t-124 -31.5q-37 0 -70 9t-73.5 36.5t-66 82.5t-25.5 116q0 101 59.5 176.5t159.5 75.5q16 1 24 1q72 0 129.5 -39t78.5 -108q16 -72 16 -135zM596 291q-5 37 -30 66.5
t-46 33t-29 3.5q-41 0 -71 -30t-37 -73h213zM519 551h-82l-127 139h127z" />
    <glyph glyph-name="ecircumflex" unicode="&#xea;" 
d="M721 211h-338q8 -49 37 -79t73 -30h18q9 3 23 6.5t32.5 19t29.5 38.5l111 -51q-36 -56 -94 -87.5t-124 -31.5q-37 0 -70 9t-73.5 36.5t-66 82.5t-25.5 116q0 101 59.5 176.5t159.5 75.5q16 1 24 1q72 0 129.5 -39t78.5 -108q16 -72 16 -135zM596 291q-5 37 -30 66.5
t-46 33t-29 3.5q-41 0 -71 -30t-37 -73h213zM639 561h-84l-68 82l-69 -82h-84l104 139h102z" />
    <glyph glyph-name="edieresis" unicode="&#xeb;" 
d="M716 201h-338q8 -49 37 -79t73 -30h18q9 3 23 6.5t32.5 19t29.5 38.5l111 -51q-36 -56 -94 -87.5t-124 -31.5q-37 0 -70 9t-73.5 36.5t-66 82.5t-25.5 116q0 101 59.5 176.5t159.5 75.5q16 1 24 1q72 0 129.5 -39t78.5 -108q16 -72 16 -135zM591 281q-5 37 -30 66.5
t-46 33t-29 3.5q-41 0 -71 -30t-37 -73h213zM590 690q33 0 56.5 -23.5t23.5 -56.5t-23.5 -56.5t-56.5 -23.5t-56.5 23.5t-23.5 56.5t23.5 56.5t56.5 23.5zM375 690q33 0 56.5 -23.5t23.5 -56.5t-23.5 -56.5t-56.5 -23.5t-56.5 23.5t-23.5 56.5t23.5 56.5t56.5 23.5z" />
    <glyph glyph-name="iacute" unicode="&#xed;" 
d="M547 0h-137v465h137v-465zM620 685l-133 -139h-76l80 139h129z" />
    <glyph glyph-name="igrave" unicode="&#xec;" 
d="M552 5h-137v465h137v-465zM539 546h-82l-127 139h127z" />
    <glyph glyph-name="icircumflex" unicode="&#xee;" 
d="M552 -5h-137v465h137v-465zM634 551h-84l-68 82l-69 -82h-84l104 139h102z" />
    <glyph glyph-name="idieresis" unicode="&#xef;" 
d="M523 10h-129v448h129v-448zM565 660q33 0 56.5 -23.5t23.5 -56.5t-23.5 -56.5t-56.5 -23.5t-56.5 23.5t-23.5 56.5t23.5 56.5t56.5 23.5zM350 660q33 0 56.5 -23.5t23.5 -56.5t-23.5 -56.5t-56.5 -23.5t-56.5 23.5t-23.5 56.5t23.5 56.5t56.5 23.5z" />
    <glyph glyph-name="ntilde" unicode="&#xf1;" 
d="M691 5h-136v316q-4 12 -12 24.5t-18 20.5q-17 7 -34 7q-31 0 -53.5 -23t-33.5 -60v-285h-136v467h134v-80q17 40 50.5 65t74.5 25q6 1 17 1q55 0 96.5 -30t50.5 -83v-365zM686 705q-7 -63 -46 -103t-98 -40q-15 0 -30 3l-114 40q-4 1 -12 1q-25 0 -46 -15t-24 -39h-59
q4 34 16.5 63.5t35.5 53.5q39 25 82 25q35 0 78 -15t61 -21t31 -6q24 0 40.5 14t18.5 39h66z" />
    <glyph glyph-name="oacute" unicode="&#xf3;" 
d="M738 197q-18 -78 -77 -131.5t-103 -60t-55 -6.5h-17q-35 0 -94.5 9t-115.5 81t-56 162q0 38 10 72.5t40 78t92 71.5t132 28q106 0 177.5 -73.5t71.5 -178.5q0 -22 -5 -52zM585 171q8 17 12.5 37t4.5 41q0 56 -31 96.5t-87 40.5t-91.5 -43.5t-35.5 -100.5q0 -67 39 -101
t83 -34q34 0 62.5 16.5t43.5 47.5zM655 705l-133 -139h-76l80 139h129z" />
    <glyph glyph-name="ograve" unicode="&#xf2;" 
d="M743 197q-18 -78 -77 -131.5t-103 -60t-55 -6.5h-17q-35 0 -94.5 9t-115.5 81t-56 162q0 38 10 72.5t40 78t92 71.5t132 28q106 0 177.5 -73.5t71.5 -178.5q0 -22 -5 -52zM590 171q8 17 12.5 37t4.5 41q0 56 -31 96.5t-87 40.5t-91.5 -43.5t-35.5 -100.5q0 -67 39 -101
t83 -34q34 0 62.5 16.5t43.5 47.5zM539 541h-82l-127 139h127z" />
    <glyph glyph-name="ocircumflex" unicode="&#xf4;" 
d="M753 197q-18 -78 -77 -131.5t-103 -60t-55 -6.5h-17q-35 0 -94.5 9t-115.5 81t-56 162q0 38 10 72.5t40 78t92 71.5t132 28q106 0 177.5 -73.5t71.5 -178.5q0 -22 -5 -52zM600 171q8 17 12.5 37t4.5 41q0 56 -31 96.5t-87 40.5t-91.5 -43.5t-35.5 -100.5q0 -67 39 -101
t83 -34q34 0 62.5 16.5t43.5 47.5zM649 561h-84l-68 82l-69 -82h-84l104 139h102z" />
    <glyph glyph-name="odieresis" unicode="&#xf6;" 
d="M743 192q-18 -78 -77 -131.5t-103 -60t-55 -6.5h-17q-35 0 -94.5 9t-115.5 81t-56 162q0 38 10 72.5t40 78t92 71.5t132 28q106 0 177.5 -73.5t71.5 -178.5q0 -22 -5 -52zM590 166q8 17 12.5 37t4.5 41q0 56 -31 96.5t-87 40.5t-91.5 -43.5t-35.5 -100.5q0 -67 39 -101
t83 -34q34 0 62.5 16.5t43.5 47.5zM590 685q33 0 56.5 -23.5t23.5 -56.5t-23.5 -56.5t-56.5 -23.5t-56.5 23.5t-23.5 56.5t23.5 56.5t56.5 23.5zM375 685q33 0 56.5 -23.5t23.5 -56.5t-23.5 -56.5t-56.5 -23.5t-56.5 23.5t-23.5 56.5t23.5 56.5t56.5 23.5z" />
    <glyph glyph-name="otilde" unicode="&#xf5;" 
d="M753 197q-18 -78 -77 -131.5t-103 -60t-55 -6.5h-17q-35 0 -94.5 9t-115.5 81t-56 162q0 38 10 72.5t40 78t92 71.5t132 28q106 0 177.5 -73.5t71.5 -178.5q0 -22 -5 -52zM600 171q8 17 12.5 37t4.5 41q0 56 -31 96.5t-87 40.5t-91.5 -43.5t-35.5 -100.5q0 -67 39 -101
t83 -34q34 0 62.5 16.5t43.5 47.5zM711 700q-7 -63 -46 -103t-98 -40q-15 0 -30 3l-114 40q-4 1 -12 1q-25 0 -46 -15t-24 -39h-59q4 34 16.5 63.5t35.5 53.5q39 25 82 25q35 0 78 -15t61 -21t31 -6q24 0 40.5 14t18.5 39h66z" />
    <glyph glyph-name="uacute" unicode="&#xfa;" 
d="M700 169q0 -80 -61.5 -125t-146.5 -45q-55 0 -101.5 18.5t-78.5 56.5q-20 30 -30 68v342h133v-299q0 -31 24.5 -52.5t54.5 -21.5q39 0 56 37q10 28 10 53v283h140v-315zM640 675l-133 -139h-76l80 139h129z" />
    <glyph glyph-name="ugrave" unicode="&#xf9;" 
d="M690 164q0 -80 -61.5 -125t-146.5 -45q-55 0 -101.5 18.5t-78.5 56.5q-20 30 -30 68v342h133v-299q0 -31 24.5 -52.5t54.5 -21.5q39 0 56 37q10 28 10 53v283h140v-315zM544 531h-82l-127 139h127z" />
    <glyph glyph-name="ucircumflex" unicode="&#xfb;" 
d="M695 164q0 -80 -61.5 -125t-146.5 -45q-55 0 -101.5 18.5t-78.5 56.5q-20 30 -30 68v342h133v-299q0 -31 24.5 -52.5t54.5 -21.5q39 0 56 37q10 28 10 53v283h140v-315zM634 541h-84l-68 82l-69 -82h-84l104 139h102z" />
    <glyph glyph-name="udieresis" unicode="&#xfc;" 
d="M690 164q0 -80 -61.5 -125t-146.5 -45q-55 0 -101.5 18.5t-78.5 56.5q-20 30 -30 68v342h133v-299q0 -31 24.5 -52.5t54.5 -21.5q39 0 56 37q10 28 10 53v283h140v-315zM585 685q33 0 56.5 -23.5t23.5 -56.5t-23.5 -56.5t-56.5 -23.5t-56.5 23.5t-23.5 56.5t23.5 56.5
t56.5 23.5zM370 685q33 0 56.5 -23.5t23.5 -56.5t-23.5 -56.5t-56.5 -23.5t-56.5 23.5t-23.5 56.5t23.5 56.5t56.5 23.5z" />
    <glyph glyph-name="dagger" unicode="&#x2020;" 
d="M754 377h-191v-584h-137v584h-189v123l189 2v256h137v-256l191 -2v-123z" />
    <glyph glyph-name="degree" unicode="&#xb0;" 
d="M606 703q8 -38 8 -76q0 -52 -18 -92q-17 -27 -53.5 -40.5t-82.5 -13.5q-57 7 -88 43q-13 21 -18.5 44t-5.5 50q0 25 1.5 38t7.5 43q7 25 28 46t54 29q16 2 27.5 3.5t19.5 1.5q46 0 78.5 -21.5t41.5 -54.5zM506 694q-6 11 -28 11q-12 -1 -17.5 -7.5t-7.5 -20t-4 -29.5
t-2 -29q0 -31 7 -50t23 -19q7 0 17 4q12 8 17 25.5t5 41.5q0 33 -10 73z" />
    <glyph glyph-name="cent" unicode="&#xa2;" 
d="M672 14q-24 -11 -55.5 -18t-61.5 -10v-117h-51v119q-66 6 -112.5 33t-80.5 81q-34 59 -34 128q0 61 26.5 115.5t77.5 92.5q60 32 123 41v80h51v-77q27 0 54 -6.5t58 -18.5l2 -141h-14q-49 49 -109 49q-46 0 -85 -33q-22 -21 -32.5 -45.5t-10.5 -52.5q0 -53 37.5 -93.5
t95.5 -40.5t98 41l23 7v-134z" />
    <glyph glyph-name="sterling" unicode="&#xa3;" 
d="M752 78q-34 -42 -73.5 -66t-88.5 -24q-34 0 -101 25t-100 25q-22 0 -40 -6.5t-36 -23.5l-22 -24l-72 67q19 40 53.5 66t79.5 33q17 31 17 68q0 44 -23 85l-113 2v70h80q-51 73 -51 150q0 38 11.5 71t42 70.5t79 60.5t103.5 23q66 0 117 -21t92 -69q36 -55 45 -119
l-137 -21q0 48 -32 78t-75 30q-36 0 -61.5 -20t-34 -40.5t-8.5 -45.5q0 -22 6 -43l41 -104h174v-70l-148 -2q3 -17 3 -31q0 -33 -13.5 -62.5t-38.5 -61.5q35 0 68.5 -11.5t73.5 -32.5q5 -1 15 -1q50 0 81 53z" />
    <glyph glyph-name="section" unicode="&#xa7;" 
d="M681 588h-129q1 5 1 15q0 31 -22.5 49t-54.5 18q-23 0 -42.5 -10.5t-30.5 -32.5q-5 -14 -5 -19v-8q0 -25 15.5 -44.5t82.5 -49.5t157 -82q27 -25 41.5 -60t14.5 -72q0 -49 -23.5 -91.5t-59.5 -63t-61 -26.5q53 -17 84 -59t31 -95q0 -44 -26 -86t-75.5 -66t-107.5 -24
q-40 0 -75 10t-65 33q-35 30 -54.5 68t-19.5 83h135q-1 -5 -1 -16q0 -34 26 -55.5t61 -21.5q44 0 66 36q10 20 10 42q0 25 -15 47t-42 36q-117 42 -176 75t-68.5 81.5t-10 58t-0.5 15.5q0 53 22 94t69 67q30 14 59 17q-53 20 -85 57.5t-32 88.5q0 13 3 30q15 62 66 103
t115 41q13 0 20 -1q82 0 142 -50t60 -132zM581 256q2 14 2 20q0 44 -30 77t-75 33q-9 0 -32 -3t-50 -34t-27 -71q0 -31 19 -59q40 -46 92 -46q46 0 80 40q6 10 12 21.5t9 21.5z" />
    <glyph glyph-name="bullet" unicode="&#x2022;" 
d="M670 397q0 -62 -43 -106t-108 -44q-64 0 -107.5 43.5t-43.5 106.5t43.5 107.5t107.5 44.5t107.5 -44.5t43.5 -107.5z" />
    <glyph glyph-name="paragraph" unicode="&#xb6;" 
d="M728 664h-66v-834h-76v833l-71 1v-833l-79 -1v460q-99 9 -159 57.5t-66.5 107t-6.5 64v7.5q0 84 66 149t150 65h308v-76z" />
    <glyph glyph-name="germandbls" unicode="&#xdf;" 
d="M700 590q0 -53 -28.5 -97t-77.5 -65q72 -13 110 -67.5t38 -126.5q0 -76 -39.5 -140.5t-91 -79.5t-87.5 -18.5t-78 -3.5v110q6 -1 17 -1q55 0 97 33.5t42 88.5q1 6 1 18q0 58 -46.5 89t-110.5 31v110q53 0 85 30t32 78v20q-3 10 -8 26.5t-27.5 33t-50.5 16.5
q-36 0 -64 -25q-14 -18 -20 -43v-607h-139v621q14 63 55 108t87.5 53t70.5 8q22 0 43 -3q71 0 131 -55t60 -127q0 -10 -1 -15z" />
    <glyph glyph-name="registered" unicode="&#xae;" 
d="M906 376q0 -165 -115.5 -280.5t-281.5 -115.5q-165 0 -280.5 115.5t-115.5 280.5q0 167 115 283t281 116t281.5 -116.5t115.5 -282.5zM812 376q0 134 -86.5 219.5t-216.5 85.5q-131 0 -216.5 -85.5t-85.5 -219.5q0 -132 86 -217t216 -85q129 0 216 85t87 217zM712 461
q0 -112 -113 -112l101 -174h-101l-92 174h-64v-174h-92v413h200q81 0 121 -25.5t40 -101.5zM626 473q0 33 -33.5 38t-60.5 5h-89v-105h110q39 0 56 12.5t17 49.5z" />
    <glyph glyph-name="copyright" unicode="&#xa9;" 
d="M900 376q0 -165 -115.5 -280.5t-281.5 -115.5q-165 0 -280.5 115.5t-115.5 280.5q0 167 115 283t281 116t281.5 -116.5t115.5 -282.5zM806 376q0 134 -86.5 219.5t-216.5 85.5q-131 0 -216.5 -85.5t-85.5 -219.5q0 -132 86 -217t216 -85q129 0 216 85t87 217zM706 306
q-8 -70 -61 -112t-125 -42q-98 0 -159 65t-61 163q0 102 58.5 166t159.5 64q73 0 124.5 -40.5t63.5 -110.5h-90q-6 36 -33 55t-66 19q-56 0 -89.5 -44t-33.5 -107q0 -60 35 -106.5t91 -46.5q38 0 67 21t29 56h90z" />
    <glyph glyph-name="trademark" unicode="&#x2122;" 
d="M865 315h-79v294l-107 -294h-47l-105 294l-2 -294h-80v364h128l82 -215l82 215h128v-364zM401 609h-111v-294h-87v294h-111v70h309v-70z" />
    <glyph glyph-name="acute" unicode="&#xb4;" 
d="M575 680l-133 -139h-76l80 139h129z" />
    <glyph glyph-name="dieresis" unicode="&#xa8;" 
d="M590 765q33 0 56.5 -23.5t23.5 -56.5t-23.5 -56.5t-56.5 -23.5t-56.5 23.5t-23.5 56.5t23.5 56.5t56.5 23.5zM375 765q33 0 56.5 -23.5t23.5 -56.5t-23.5 -56.5t-56.5 -23.5t-56.5 23.5t-23.5 56.5t23.5 56.5t56.5 23.5z" />
    <glyph glyph-name="notequal" unicode="&#x2260;" 
d="M443 338h-139v74h168l32 80h78l-32 -80h71v-74h-101l-38 -94h139v-72h-168l-33 -81h-74l32 81h-74v72h102z" />
    <glyph glyph-name="AE" unicode="&#xc6;" 
d="M414 275v331l-98 -331h98zM828 736v-127h-263v-172h265v-121h-267v-191h265v-129h-414v162h-141l-47 -158h-156l262 736h496z" />
    <glyph glyph-name="Oslash" unicode="&#xd8;" 
d="M705 492l-364 -327q63 -38 137 -38q106 0 179 75t73 182q0 56 -25 108zM271 229l379 338q-73 70 -177 70q-106 0 -179.5 -75.5t-73.5 -181.5q0 -84 51 -151zM169 138q-45 50 -69.5 108t-24.5 124q0 164 111 283t272 119q88 0 164 -27.5t134 -82.5l64 57h137l-142 -128
q28 -42 44 -89.5t16 -97.5q0 -164 -111 -283t-271 -119q-73 0 -135.5 17.5t-116.5 54.5l-66 -59h-144z" />
    <glyph glyph-name="plusminus" unicode="&#xb1;" 
d="M426 201v165h-166v86h166v209h86v-209h160v-86h-162v-165h181v-81h-440v81h175z" />
    <glyph glyph-name="lessequal" unicode="&#x2264;" 
d="M280 153h375v-62h-375v62zM649 583l-230 -161l226 -171l-72 -52l-261 223l261 216z" />
    <glyph glyph-name="greaterequal" unicode="&#x2265;" 
d="M653 152h-375v-62h375v62zM284 582l230 -161l-226 -171l72 -52l261 223l-261 216z" />
    <glyph glyph-name="yen" unicode="&#xa5;" 
d="M768 740l-213 -408v-21h127v-59h-127v-41h127v-59h-127v-152h-149v152h-125v59h125v41h-125v59h125v21l-216 408h170l127 -299l117 299h164z" />
    <glyph glyph-name="mu" unicode="&#xb5;" 
d="M782 478l-90 -370l87 20l-2 -73l-196 -77v45q-20 -17 -46.5 -30.5t-66.5 -23.5l-107 26q-19 -8 -26.5 -18t-15.5 -21q-18 -20 -57.5 -77t-62.5 -57q-9 0 -17.5 6t-8.5 17q0 14 23 64.5t31.5 76.5t19.5 65.5t22 79.5l95 347h108l-96 -360q6 -31 26 -46t47 -15q33 0 63 21
t37 41t17.5 28.5t10.5 16.5l96 314h109z" />
    <glyph glyph-name="partialdiff" unicode="&#x2202;" 
d="M249 295q-6 -30 -6 -61q0 -78 34 -140t94.5 -85.5t113.5 -23.5q70 0 126.5 32.5t82.5 95.5q13 38 18.5 68t5.5 65q0 26 -9.5 71.5t-34 106t-60.5 123.5l-121 191h-160l209 -306l2 -8q-24 17 -48.5 24t-52.5 7q-68 0 -122.5 -44.5t-71.5 -115.5zM390 160q-9 24 -9 54
q0 50 25.5 87.5t72.5 37.5q10 0 34 -3t49 -40.5t25 -83.5q0 -42 -21 -75t-43.5 -36.5t-33.5 -3.5q-32 0 -57 16t-42 47z" />
    <glyph glyph-name="ordfeminine" unicode="&#xaa;" 
d="M597 508h-64v51q-24 -58 -83 -58q-25 0 -49 15t-37.5 44.5t-13.5 62.5q0 50 28.5 87.5t77.5 37.5q25 0 47.5 -16t29.5 -41v51h64v-234zM595 385h-240v65h240v-65zM525 583q9 17 9 38q0 31 -17 51.5t-48 17.5q-25 -3 -37.5 -21t-12.5 -44q0 -30 17.5 -51t47.5 -18
q26 5 41 27z" />
    <glyph glyph-name="ordmasculine" unicode="&#xba;" 
d="M632 601q-9 -40 -38 -66.5t-52.5 -29.5t-35.5 -3q-10 0 -18 0.5t-34 4.5t-53.5 40t-27.5 82q0 39 20 68t51 42.5t66 13.5q54 0 89 -37t35 -90q0 -16 -2 -25zM625 380h-255v70h255v-70zM555 588q9 18 9 40q0 27 -15.5 47.5t-43.5 20.5q-29 0 -46.5 -21.5t-17.5 -50.5
q0 -33 19.5 -50.5t42.5 -17.5q36 0 52 32z" />
    <glyph glyph-name="ae" unicode="&#xe6;" 
d="M439 150q18 35 18 76q0 55 -31.5 96.5t-84.5 41.5q-9 0 -35.5 -3.5t-52.5 -40t-26 -85.5q0 -56 31.5 -98t84.5 -42q9 0 24 3t36.5 17t35.5 35zM801 294q-5 37 -30 66.5t-46 33t-29 3.5q-41 0 -71 -30t-37 -73h213zM577 467q21 12 47.5 20t53.5 8q6 1 13 1h11
q72 0 129.5 -39t78.5 -108q16 -72 16 -135h-338q8 -49 37 -79t73 -30h18q9 3 23 6.5t32.5 19t29.5 38.5l111 -51q-36 -56 -94 -87.5t-124 -31.5q-59 0 -111 26v-25h-127v102q-23 -54 -67.5 -84.5t-98.5 -30.5q-26 0 -49.5 6t-60.5 30t-64 82t-27 124q0 101 57 175.5
t156 74.5q50 0 94 -32t60 -82v102h121z" />
    <glyph glyph-name="oslash" unicode="&#xf8;" 
d="M588 313l-176 -187q29 -20 65 -20q34 0 62.5 16.5t40.5 40.5t16 44t4 42q0 34 -12 64zM367 179l176 189q-25 17 -61 17q-56 0 -91.5 -44.5t-35.5 -101.5q0 -31 12 -60zM682 413q59 -70 59 -166q0 -10 -0.5 -18t-4.5 -33q-18 -78 -77 -131.5t-103 -60t-55 -6.5h-17
q-35 0 -73.5 5.5t-81.5 34.5l-33 -35h-94l75 81q-59 71 -59 167q0 38 10.5 73t40 77.5t91.5 70.5t132 28q75 0 137 -40l18 19h97z" />
    <glyph glyph-name="questiondown" unicode="&#xbf;" 
d="M557 377q-24 -15 -50 -15q-49 0 -75 48q-6 17 -6 34q0 33 21 56t55 23q39 0 62 -24t23 -57q0 -18 -7 -34.5t-23 -30.5zM721 -18q0 -80 -41.5 -140.5t-85 -69t-58.5 -9.5t-30 -1q-64 0 -113.5 22.5t-81.5 74.5q-21 45 -25 70.5t-4 35.5v15q0 73 43.5 128.5t116.5 67.5v109
h131v-187q-65 0 -108 -33.5t-43 -97.5q0 -38 25 -64t60 -26q16 0 28 4.5t26 16.5q8 10 14.5 22.5t9.5 22.5q0 20 1 39h135z" />
    <glyph glyph-name="exclamdown" unicode="&#xa1;" 
d="M479 515q32 0 55 -23t23 -55t-22.5 -54.5t-55.5 -22.5q-32 0 -55 22t-23 55q0 32 23 55t55 23zM549 -227h-139v512h139v-512z" />
    <glyph glyph-name="logicalnot" unicode="&#xac;" horiz-adv-x="2500" 
d="M2391 250q0 -143 -81 -209.5t-226 -66.5q-41 0 -91.5 13.5t-50.5 44.5q0 19 11.5 29.5t28.5 10.5q18 0 36 -10t27 -27q6 -15 22 -24.5t38 -14.5q113 0 171.5 60.5t58.5 183.5q3 29 3 62q0 147 -70.5 268t-229 141.5t-232 29t-135.5 8.5q-55 0 -134 -12.5t-181 -29
t-262 -125.5t-279 -253t-132 -257q21 -30 33.5 -65.5t12.5 -68.5q0 -23 -3.5 -37.5t-18.5 -14.5q-28 0 -44 48t-16 86v12q-61 50 -102.5 90.5t-45 69t-4.5 42.5t-1 32q0 19 3 34q-44 -38 -105 -83.5t-123.5 -80t-102.5 -34.5q-18 0 -32 11t-14 29q0 50 25 126.5t48 107.5
l64 88q10 12 14.5 18t6.5 12q-45 0 -67.5 20.5t-29.5 67.5q8 -2 14.5 -2h14.5q54 0 109.5 31t102.5 78q2 6 7 6q4 0 7.5 -12t3.5 -22q0 -78 -50 -117q-41 -27 -82 -53q-9 -17 -55.5 -81.5t-46.5 -113.5q0 -31 15 -77.5t36 -46.5q33 0 112.5 55t143.5 100q28 66 50 120t45 82
t33.5 37.5t28.5 9.5q11 0 19.5 -7.5t8.5 -19.5q0 -39 -32 -73.5t-77 -63.5q-7 -13 -20 -65.5t-13 -70.5q0 -23 31.5 -68.5t70.5 -96.5q26 124 141 262t260 238t268.5 125.5t215 38.5t194.5 13q76 0 156.5 -7t197 -26t208.5 -134.5t92 -370.5zM2111 566q0 -61 -58.5 -197.5
t-103 -214.5t-78.5 -120t-80 -42q-39 0 -78.5 25.5t-39.5 63.5q0 30 15.5 51t36.5 41q30 -37 47 -52t47 -15q81 0 142 130t61 222q0 54 -29.5 70.5t-84.5 16.5q-87 0 -95 -55t-19 -61l-13 34q1 7 1 23q0 12 -0.5 24.5t-0.5 26.5q0 49 24 77.5t97 28.5q87 0 148 -13t61 -64z
M1583 285q0 -59 -39 -113t-137 -128.5t-273 -74.5q-91 0 -160 35.5t-69 117.5q0 51 36.5 91.5t89.5 54.5l3 -9q-39 -15 -61.5 -34.5t-25.5 -57.5q0 -77 81 -104.5t182 -27.5q146 0 216.5 53t86.5 76t16 50q0 42 -33.5 53.5t-83.5 11.5q-29 0 -81 -4.5t-57 -4.5
q-74 0 -126 33t-52 105q0 103 91.5 162t201.5 59q38 0 57 -4t36 -24q8 4 16 4q11 0 26.5 -28t19.5 -29.5t4 -8.5q-4 -12 -29.5 -40t-28.5 -33q-3 -11 -10 -11t-20.5 12.5t-22.5 14.5t-18.5 5.5t-9.5 13.5q0 13 18 36t18 39q0 20 -18.5 28t-42.5 8q-81 0 -155.5 -41.5
t-74.5 -117.5q0 -43 35.5 -58t84.5 -15q27 0 69.5 2.5t48.5 2.5q86 0 138.5 -17t52.5 -83zM1605 21q-6 -26 -46 -26q-11 0 -30 5t-32.5 20.5t-8.5 33.5q7 25 43 25q13 0 32 -5.5t33 -20t9 -32.5zM902 15q-6 -27 -49 -27q-12 0 -30.5 4.5t-33 21.5t-9.5 36q8 26 48 26
q12 0 31 -5t33.5 -21.5t9.5 -34.5z" />
    <glyph glyph-name="radical" unicode="&#x221a;" 
d="M772 684h-56l-317 -707l-163 303l-48 -38l-6 99l68 69l141 -255l280 619h101v-90z" />
    <glyph glyph-name="florin" unicode="&#x192;" 
d="M641 289h-128l1 -264q-12 -62 -53 -100t-101 -38q-12 0 -22 1.5t-26.5 5t-36.5 11.5v116q44 -29 76 -29q24 0 39 16q5 9 11 18l-1 263h-92v93h94v276q11 60 51.5 96.5t100.5 36.5q12 0 23 -1.5t27 -5t37 -11.5v-116q-44 29 -77 29q-24 0 -39 -16q-5 -8 -7 -11.5t-3 -7.5
v-269h126v-93z" />
    <glyph glyph-name="guillemotleft" unicode="&#xab;" 
d="M490 404l-134 -170l132 -166l-70 -52l-166 218l170 221zM719 66l-72 -54l-161 234l159 207l70 -53l-137 -166z" />
    <glyph glyph-name="guillemotright" unicode="&#xbb;" 
d="M532 234l-172 -214l-68 48l137 166l-137 166l70 55zM755 230l-166 -214l-70 48l131 166l-135 170l74 53z" />
    <glyph glyph-name="ellipsis" unicode="&#x2026;" 
d="M846 78q0 -39 -27.5 -66.5t-66.5 -27.5t-66 27t-27 67q0 39 27 66t66 27q38 0 66 -27t28 -66zM579 78q0 -38 -27 -66t-66 -28q-40 0 -67.5 27.5t-27.5 66.5q0 40 27.5 66.5t67.5 26.5q39 0 66 -27t27 -66zM312 78q0 -38 -27 -66t-66 -28t-66.5 27.5t-27.5 66.5t27 66
t67 27q39 0 66 -27t27 -66z" />
    <glyph glyph-name="nonbreakingspace" unicode="&#xa0;" 
 />
    <glyph glyph-name="Agrave" unicode="&#xc0;" 
d="M857 0h-162l-51 158h-271l-47 -158h-156l263 740h163zM605 275l-93 338l-96 -338h189zM589 776h-82l-127 139h127z" />
    <glyph glyph-name="Atilde" unicode="&#xc3;" 
d="M862 5h-162l-51 158h-271l-47 -158h-156l263 740h163zM610 280l-93 338l-96 -338h189zM711 940q-7 -63 -46 -103t-98 -40q-15 0 -30 3l-114 40q-4 1 -12 1q-25 0 -46 -15t-24 -39h-59q4 34 16.5 63.5t35.5 53.5q39 25 82 25q35 0 78 -15t61 -21t31 -6q24 0 40.5 14
t18.5 39h66z" />
    <glyph glyph-name="Otilde" unicode="&#xd5;" 
d="M666 940q-7 -63 -46 -103t-98 -40q-15 0 -30 3l-114 40q-4 1 -12 1q-25 0 -46 -15t-24 -39h-59q4 34 16.5 63.5t35.5 53.5q39 25 82 25q35 0 78 -15t61 -21t31 -6q24 0 40.5 14t18.5 39h66zM884 397q0 -164 -111 -283t-271 -119q-168 0 -293 104.5t-125 263.5
q0 164 111 283t272 119q169 0 293 -104.5t124 -263.5zM739 377q0 106 -75.5 179.5t-181.5 73.5t-179.5 -75.5t-73.5 -181.5q0 -105 76 -179t182 -74t179 75t73 182z" />
    <glyph glyph-name="OE" unicode="&#x152;" 
d="M541 155v449q-57 31 -123 31q-106 0 -179.5 -75.5t-73.5 -181.5q0 -105 76 -179t182 -74q63 0 118 30zM541 752v8h429v-131h-272v-178h274v-125h-277v-198h275v-133h-429v23q-30 -9 -53 -13.5t-50 -4.5q-168 0 -293 104.5t-125 263.5q0 164 111 283t272 119
q44 0 73.5 -3.5t64.5 -14.5z" />
    <glyph glyph-name="oe" unicode="&#x153;" 
d="M438 166q8 17 12.5 37t4.5 41q0 56 -31 96.5t-87 40.5t-91.5 -43.5t-35.5 -100.5q0 -67 39 -101t83 -34q34 0 62.5 16.5t43.5 47.5zM815 291q-5 37 -30 66.5t-46 33t-29 3.5q-41 0 -71 -30t-37 -73h213zM533 413q30 37 70 58t89 21q6 1 13 1h11q72 0 129.5 -39t78.5 -108
q16 -72 16 -135h-338q8 -49 37 -79t73 -30h18q9 3 23 6.5t32.5 19t29.5 38.5l111 -51q-36 -56 -94 -87.5t-124 -31.5q-37 0 -70 9t-63 29t-46 41q-30 -31 -69.5 -52t-66 -25t-37.5 -4h-17q-35 0 -94.5 9t-115.5 81t-56 162q0 38 10 72.5t40 78t92 71.5t132 28
q57 0 103.5 -21.5t82.5 -61.5z" />
    <glyph glyph-name="endash" unicode="&#x2013;" 
d="M788 207h-561v104h561v-104z" />
    <glyph glyph-name="emdash" unicode="&#x2014;" 
d="M1020 207h-998h-4v104h998h4v-104z" />
    <glyph glyph-name="quotedblleft" unicode="&#x201c;" 
d="M416 738l-55 -293h-146l109 293h92zM652 736l-50 -293h-149l108 293h91z" />
    <glyph glyph-name="quotedblright" unicode="&#x201d;" 
d="M461 731l-108 -289h-91l54 289h145zM701 729l-111 -291h-92l57 291h146z" />
    <glyph glyph-name="quoteleft" unicode="&#x2018;" 
d="M557 740l-51 -295h-145l106 295h90z" />
    <glyph glyph-name="quoteright" unicode="&#x2019;" 
d="M601 740l-103 -293h-92l49 293h146z" />
    <glyph glyph-name="ydieresis" unicode="&#xff;" 
d="M724 474l-267 -696h-147l108 260l-176 436h150l96 -317l90 317h146zM595 700q33 0 56.5 -23.5t23.5 -56.5t-23.5 -56.5t-56.5 -23.5t-56.5 23.5t-23.5 56.5t23.5 56.5t56.5 23.5zM380 700q33 0 56.5 -23.5t23.5 -56.5t-23.5 -56.5t-56.5 -23.5t-56.5 23.5t-23.5 56.5
t23.5 56.5t56.5 23.5z" />
    <glyph glyph-name="Ydieresis" unicode="&#x178;" 
d="M779 740l-213 -408v-332h-149v332l-216 408h170l127 -299l117 299h164zM600 945q33 0 56.5 -23.5t23.5 -56.5t-23.5 -56.5t-56.5 -23.5t-56.5 23.5t-23.5 56.5t23.5 56.5t56.5 23.5zM385 945q33 0 56.5 -23.5t23.5 -56.5t-23.5 -56.5t-56.5 -23.5t-56.5 23.5t-23.5 56.5
t23.5 56.5t56.5 23.5z" />
    <glyph glyph-name="fraction" unicode="&#x2215;" 
d="M734 759l-373 -743h-80l373 743h80z" />
    <glyph glyph-name="currency" unicode="&#xa4;" 
d="M790 153l-60 -65l-67 66q-65 -54 -165 -54q-103 0 -169 55l-66 -66l-62 63l66 66q-50 66 -50 160q0 49 12.5 92.5t37.5 73.5l-66 67l62 63l67 -67q68 52 168 52q98 0 161 -52l67 67l62 -62l-62 -63q25 -33 39.5 -78t14.5 -91t-15 -89t-41 -72zM629 375q0 56 -37 95
t-94 39q-56 0 -93.5 -38.5t-37.5 -95.5t37 -91t94 -34q56 0 93.5 34.5t37.5 90.5z" />
    <glyph glyph-name="guilsinglleft" unicode="&#x2039;" 
d="M641 146l-103 -72l-172 246l172 247l100 -70l-126 -177z" />
    <glyph glyph-name="guilsinglright" unicode="&#x203a;" 
d="M614 320l-172 -246l-103 72l129 174l-126 177l100 70z" />
    <glyph glyph-name="fi" unicode="&#xf001;" 
d="M549 360h-73v-355h-139v355l-63 2v104h65v209q6 56 51.5 87.5t104.5 31.5q7 0 15.5 -1t12.5 -1l41 -10v-111q-18 9 -35 9q-24 0 -38.5 -17.5t-14.5 -48.5v-144h88h122v-465h-137v355z" />
    <glyph glyph-name="fl" unicode="&#xf002;" 
d="M566 777h135v-787h-137v365h-86v-355h-139v355l-63 2v104h65v209q6 56 51.5 87.5t104.5 31.5q7 0 15.5 -1t12.5 -1zM564 465v202q-15 7 -32 7q-54 0 -54 -65v-144h86z" />
    <glyph glyph-name="daggerdbl" unicode="&#x2021;" 
d="M740 6h-185v-213h-131v213h-185v117h185v301h-185v117l185 2v215h131v-217h185v-117h-185v-301h185v-117z" />
    <glyph glyph-name="periodcentered" unicode="&#xb7;" 
d="M480 375q30 0 52.5 -20.5t22.5 -50.5t-20 -52t-50 -22q-31 0 -53.5 20.5t-22.5 49.5q0 30 20.5 52.5t50.5 22.5z" />
    <glyph glyph-name="periodcentered" unicode="&#x2219;" 
d="M480 375q30 0 52.5 -20.5t22.5 -50.5t-20 -52t-50 -22q-31 0 -53.5 20.5t-22.5 49.5q0 30 20.5 52.5t50.5 22.5z" />
    <glyph glyph-name="quotesinglbase" unicode="&#x201a;" 
d="M601 125l-103 -293h-92l49 293h146z" />
    <glyph glyph-name="quotedblbase" unicode="&#x201e;" 
d="M461 121l-108 -289h-91l54 289h145zM701 119l-111 -291h-92l57 291h146z" />
    <glyph glyph-name="perthousand" unicode="&#x2030;" 
d="M331 539q-8 -72 -63 -116t-125 -44q-71 0 -111 36.5t-54.5 72t-14.5 73.5q0 66 38.5 118.5t80.5 60t59 7.5q76 0 133.5 -54.5t57.5 -131.5q0 -15 -1 -22zM584 766l-443 -795h-79q81 140 155 271t139.5 249.5t149.5 274.5h78zM1025 31q-28 -25 -60.5 -37.5t-69.5 -12.5
q-68 0 -121 41.5t-59.5 85.5t-6.5 59q0 74 58.5 127.5t135.5 53.5t126.5 -56t49.5 -131q0 -38 -12.5 -70t-40.5 -60zM630 31q-28 -25 -60.5 -37.5t-69.5 -12.5q-68 0 -121 41.5t-59.5 85.5t-6.5 59q0 74 58.5 127.5t135.5 53.5t126.5 -56t49.5 -131q0 -38 -12.5 -70
t-40.5 -60zM200 629q-17 12 -30.5 15t-23.5 3q-39 0 -63 -26t-24 -61q0 -20 7.5 -37.5t24.5 -32.5q26 -18 52 -18q25 0 55 16q35 33 35 77q0 21 -7 35.5t-26 28.5zM957 223q-29 24 -65 24q-8 0 -15.5 -2t-16.5 -7t-32 -19q-21 -22 -21 -56q0 -36 25.5 -63.5t63.5 -27.5
q39 0 62 25t23 61t-24 65zM562 223q-29 24 -65 24q-8 0 -15.5 -2t-16.5 -7t-32 -19q-21 -22 -21 -56q0 -36 25.5 -63.5t63.5 -27.5q39 0 62 25t23 61t-24 65z" />
    <glyph glyph-name="Acircumflex" unicode="&#xc2;" 
d="M862 -5h-162l-51 158h-271l-47 -158h-156l263 740h163zM610 270l-93 338l-96 -338h189zM674 796h-84l-68 82l-69 -82h-84l104 139h102z" />
    <glyph glyph-name="Ecircumflex" unicode="&#xca;" 
d="M689 320h-267v-191h265v-129h-414v740h414v-127h-263v-172h265v-121zM634 801h-84l-68 82l-69 -82h-84l104 139h102z" />
    <glyph glyph-name="Aacute" unicode="&#xc1;" 
d="M857 -10h-162l-51 158h-271l-47 -158h-156l263 740h163zM605 265l-93 338l-96 -338h189zM660 930l-133 -139h-76l80 139h129z" />
    <glyph glyph-name="Edieresis" unicode="&#xcb;" 
d="M694 320h-267v-191h265v-129h-414v740h414v-127h-263v-172h265v-121zM590 945q33 0 56.5 -23.5t23.5 -56.5t-23.5 -56.5t-56.5 -23.5t-56.5 23.5t-23.5 56.5t23.5 56.5t56.5 23.5zM375 945q33 0 56.5 -23.5t23.5 -56.5t-23.5 -56.5t-56.5 -23.5t-56.5 23.5t-23.5 56.5
t23.5 56.5t56.5 23.5z" />
    <glyph glyph-name="Egrave" unicode="&#xc8;" 
d="M694 320h-267v-191h265v-129h-414v740h414v-127h-263v-172h265v-121zM534 791h-82l-127 139h127z" />
    <glyph glyph-name="Iacute" unicode="&#xcd;" 
d="M545 0h-146v740h146v-740zM610 925l-133 -139h-76l80 139h129z" />
    <glyph glyph-name="Icircumflex" unicode="&#xce;" 
d="M545 0h-146v740h146v-740zM324 796h-84l-68 82l-69 -82h-84l104 139h102z" />
    <glyph glyph-name="Idieresis" unicode="&#xcf;" 
d="M550 -5h-146v740h146v-740zM585 935q33 0 56.5 -23.5t23.5 -56.5t-23.5 -56.5t-56.5 -23.5t-56.5 23.5t-23.5 56.5t23.5 56.5t56.5 23.5zM370 935q33 0 56.5 -23.5t23.5 -56.5t-23.5 -56.5t-56.5 -23.5t-56.5 23.5t-23.5 56.5t23.5 56.5t56.5 23.5z" />
    <glyph glyph-name="Igrave" unicode="&#xcc;" 
d="M545 0h-146v740h146v-740zM539 781h-82l-127 139h127z" />
    <glyph glyph-name="Oacute" unicode="&#xd3;" 
d="M919 397q0 -164 -111 -283t-271 -119q-168 0 -293 104.5t-125 263.5q0 164 111 283t272 119q169 0 293 -104.5t124 -263.5zM774 377q0 106 -75.5 179.5t-181.5 73.5t-179.5 -75.5t-73.5 -181.5q0 -105 76 -179t182 -74t179 75t73 182zM655 935l-133 -139h-76l80 139h129z
" />
    <glyph glyph-name="Ocircumflex" unicode="&#xd4;" 
d="M909 392q0 -164 -111 -283t-271 -119q-168 0 -293 104.5t-125 263.5q0 164 111 283t272 119q169 0 293 -104.5t124 -263.5zM764 372q0 106 -75.5 179.5t-181.5 73.5t-179.5 -75.5t-73.5 -181.5q0 -105 76 -179t182 -74t179 75t73 182zM659 801h-84l-68 82l-69 -82h-84
l104 139h102z" />
    <glyph glyph-name="Ograve" unicode="&#xd2;" 
d="M904 392q0 -164 -111 -283t-271 -119q-168 0 -293 104.5t-125 263.5q0 164 111 283t272 119q169 0 293 -104.5t124 -263.5zM759 372q0 106 -75.5 179.5t-181.5 73.5t-179.5 -75.5t-73.5 -181.5q0 -105 76 -179t182 -74t179 75t73 182zM544 801h-82l-127 139h127z" />
    <glyph glyph-name="Uacute" unicode="&#xda;" 
d="M809 235q-14 -98 -82 -158t-169 -81h-118q-95 10 -162.5 76.5t-79.5 160.5l3 517h148v-502l25 -60q22 -31 54 -46.5t70 -15.5q45 0 84 22.5t54 52t19 43.5t4 32v474h150v-515zM640 935l-133 -139h-76l80 139h129z" />
    <glyph glyph-name="Ucircumflex" unicode="&#xdb;" 
d="M799 240q-14 -98 -82 -158t-169 -81h-118q-95 10 -162.5 76.5t-79.5 160.5l3 517h148v-502l25 -60q22 -31 54 -46.5t70 -15.5q45 0 84 22.5t54 52t19 43.5t4 32v474h150v-515zM649 801h-84l-68 82l-69 -82h-84l104 139h102z" />
    <glyph glyph-name="Ugrave" unicode="&#xd9;" 
d="M804 240q-14 -98 -82 -158t-169 -81h-118q-95 10 -162.5 76.5t-79.5 160.5l3 517h148v-502l25 -60q22 -31 54 -46.5t70 -15.5q45 0 84 22.5t54 52t19 43.5t4 32v474h150v-515zM529 796h-82l-127 139h127z" />
    <glyph glyph-name="dotlessi" unicode="&#x131;" 
d="M562 0h-137v465h137v-465z" />
    <glyph glyph-name="circumflex" unicode="&#x2c6;" 
d="M659 636h-84l-68 82l-69 -82h-84l104 139h102z" />
    <glyph glyph-name="tilde" unicode="&#x2dc;" 
d="M706 750q-7 -63 -46 -103t-98 -40q-15 0 -30 3l-114 40q-4 1 -12 1q-25 0 -46 -15t-24 -39h-59q4 34 16.5 63.5t35.5 53.5q39 25 82 25q35 0 78 -15t61 -21t31 -6q24 0 40.5 14t18.5 39h66z" />
    <glyph glyph-name="macron" unicode="&#xaf;" 
d="M726 484h-374v127h374v-127z" />
    <glyph glyph-name="macron" unicode="&#x2c9;" 
d="M726 484h-374v127h374v-127z" />
    <glyph glyph-name="breve" unicode="&#x2d8;" 
d="M733 600q-12 -26 -24 -51q-34 -62 -83.5 -105.5t-120.5 -43.5q-103 0 -158 47.5t-81 147.5h87q27 -35 63.5 -70t84.5 -35q55 0 83.5 36.5t46.5 73.5h15h87z" />
    <glyph glyph-name="dotaccent" unicode="&#x2d9;" 
d="M480 750q32 0 56 -20t24 -50q0 -32 -20 -56t-50 -24q-32 0 -56 20t-24 50q0 32 20 56t50 24z" />
    <glyph glyph-name="ring" unicode="&#x2da;" 
d="M604 646q0 -51 -29.5 -87.5t-79.5 -36.5q-49 0 -79 37t-30 87q0 51 29.5 87.5t79.5 36.5t79.5 -36t29.5 -88zM526 646q0 19 -7 33t-24 14t-24 -13.5t-7 -33.5q0 -19 7 -33t24 -14t24 13.5t7 33.5z" />
    <glyph glyph-name="cedilla" unicode="&#xb8;" 
d="M502 3l-13 -19h16q38 0 55.5 -18.5t17.5 -43.5q0 -6 -5.5 -31.5t-44.5 -50.5t-100 -25l-29 3q-12 1 -25 4.5t-40 13.5l37 54l25 -7l15 -4l21 -2q16 0 24 4t13.5 8t7.5 15q2 10 -0.5 12.5t-13.5 2.5l-18 -1l-23 -4l-18 18l46 78z" />
    <glyph glyph-name="hungarumlaut" unicode="&#x2ba;" 
d="M468 694l-91 -162l-66 -43l60 245q7 16 23 29t32 13q20 0 33.5 -16.5t13.5 -41.5q0 -11 -5 -24zM603 684l-91 -162l-66 -43l60 245q7 16 23 29t32 13q20 0 33.5 -16.5t13.5 -41.5q0 -11 -5 -24z" />
    <glyph glyph-name="ogonek" unicode="&#x2db;" 
d="M617 -159q-20 -12 -39.5 -21t-32 -13t-32.5 -9t-38 -5q-5 0 -28.5 4t-41 13t-33.5 28.5t-22 44.5t-7.5 34t-2 18t-0.5 13q0 22 16.5 74.5t98.5 82.5l49 -5l3 -29q-20 -8 -32.5 -18.5t-24 -29.5t-15.5 -28.5t-4 -23.5q0 -8 2.5 -19.5t7.5 -21.5t17 -16.5t26 -6.5
q11 0 25 2.5t24.5 8t22.5 11.5l61 22v-110z" />
    <glyph glyph-name="caron" unicode="&#x2c7;" 
d="M673 759h-84l-68 -82l-69 82h-84l104 -139h102z" />
    <glyph glyph-name="Lslash" unicode="&#x141;" 
d="M358 321l-56 -30l-21 83l77 44v322h146v-239l55 31l41 -80l-96 -52v-271h237v-129h-383v321z" />
    <glyph glyph-name="lslash" unicode="&#x142;" 
d="M570 506l72 55l1 -111l-73 -53v-397h-146v290l-59 -43l-1 102l60 46v345h146v-234z" />
    <glyph glyph-name="Scaron" unicode="&#x160;" 
d="M662 938h-84l-68 -82l-69 82h-84l104 -139h102zM692 668l-90 -102q-21 31 -50 48.5t-61 17.5q-36 0 -68 -23q-26 -26 -26 -59q0 -39 39 -69l160 -79q52 -30 79.5 -80t27.5 -108q0 -47 -19.5 -92t-57.5 -79q-73 -53 -170 -53q-89 0 -158 45q-33 24 -59 53l80 107
q31 -37 65 -59.5t72 -22.5q28 0 57 16q46 23 46 78q0 33 -11.5 46t-22 21t-16.5 13l-166 82q-86 74 -86 171q0 9 1.5 22t13 57t70.5 91.5t141 47.5q61 0 116.5 -22.5t92.5 -67.5z" />
    <glyph glyph-name="scaron" unicode="&#x161;" 
d="M660 654h-84l-68 -82l-69 82h-84l104 -139h102zM689 131q-7 -65 -54 -103t-113 -38q-40 0 -64 4l-36 6q-69 25 -108 86l106 59q7 -27 32 -44.5t54 -17.5q17 0 32 7.5t25 24.5q2 10 2 13q0 24 -22 40l-146 59q-32 19 -48.5 49t-16.5 65q0 33 15 62.5t46 49.5q26 19 60 26
t76 7q52 0 91.5 -24.5t68.5 -70.5l-103 -49q-5 24 -28.5 39.5t-50.5 15.5q-40 0 -56 -34q-2 -8 2 -25q9 -16 42 -29.5t84 -32.5q111 -50 111 -131q0 -9 -1 -14z" />
    <glyph glyph-name="brokenbar" unicode="&#xa6;" 
d="M435 318v-267h115v267h-115zM434 692v-267h115v267h-115z" />
    <glyph glyph-name="Eth" unicode="&#xd0;" 
d="M349 429h70l-1 -100h-69v-211h125q93 14 148.5 85t55.5 164q0 54 -21 107q-53 112 -172 134h-136v-179zM200 329h-75l1 100h74v306h324q114 -14 193.5 -93.5t91 -144.5t13.5 -90t2 -42q0 -75 -24.5 -140.5t-77.5 -123.5q-43 -41 -95 -69t-108 -35h-319v332z" />
    <glyph glyph-name="eth" unicode="&#xf0;" 
d="M503 118q40 6 61 38.5t21 75.5q0 47 -24.5 84t-49 40t-35.5 3q-47 0 -72 -37.5t-25 -87.5q0 -30 9 -54q35 -63 100 -63q10 0 15 1zM458 573l-97 -71q-1 1 -14.5 7t-15 11t-4.5 19.5t-1 20.5l94 67l-89 131h160l35 -55l105 76q14 -5 29 -10t16 -11q1 -7 -0.5 -15t-4.5 -14
l-110 -81l51 -81q34 -58 59.5 -122t34 -102.5t9.5 -52.5t1 -26q0 -35 -5.5 -64.5t-18.5 -66.5q-26 -63 -82.5 -95.5t-126.5 -32.5q-53 0 -105 19q-68 28 -102.5 91t-34.5 139q0 31 11 81.5t66 95t123 44.5q27 0 52 -7.5t49 -23.5l-2 8z" />
    <glyph glyph-name="Yacute" unicode="&#xdd;" 
d="M806 736l-213 -408v-332h-149v332l-216 408h170l127 -299l117 299h164zM665 897l-133 -139h-76l80 139h129z" />
    <glyph glyph-name="yacute" unicode="&#xfd;" 
d="M752 474l-267 -696h-147l108 260l-176 436h150l96 -317l90 317h146zM703 657l-133 -139h-76l80 139h129z" />
    <glyph glyph-name="Thorn" unicode="&#xde;" 
d="M647 450q0 75 -26.5 102.5t-78.5 27.5h-95v-236h67q80 0 106.5 22.5t26.5 83.5zM309 29v743h137v-102h97q108 0 158 -58.5t50 -145.5q0 -102 -57.5 -159.5t-163.5 -57.5h-84v5v-225h-137z" />
    <glyph glyph-name="thorn" unicode="&#xfe;" 
d="M614 267q0 71 -19.5 88t-74.5 17h-100v-231h82q72 0 92 28.5t20 97.5zM298 -159v837l117 2v-217h112q107 0 152 -57.5t45 -147.5q0 -103 -48 -153t-152 -50h-104v-4h-5v-210h-117z" />
    <glyph glyph-name="minus" unicode="&#x2212;" 
d="M757 150h-534v143h534v-143z" />
    <glyph glyph-name="multiply" unicode="&#xd7;" 
d="M670 503l-114 -115l150 -151l-59 -59l-151 151l-117 -118l-61 61l117 117l-147 148l60 61l148 -148l113 113z" />
    <glyph glyph-name="onesuperior" unicode="&#xb9;" 
d="M537 366h-70v309h-66v60h136v-369z" />
    <glyph glyph-name="twosuperior" unicode="&#xb2;" 
d="M643 381h-237v20q41 45 77.5 93.5t60.5 88t24 64.5q0 16 -6 33q-15 17 -38 17q-34 0 -40 -27t-5 -36h-70q0 43 20 76t61 42q21 3 43 3h14q37 -4 62.5 -28t28.5 -44.5t3 -31.5q0 -24 -10 -51l-29 -52q-48 -65 -91 -108h132v-59z" />
    <glyph glyph-name="threesuperior" unicode="&#xb3;" 
d="M629 459q-16 -33 -36.5 -50t-41 -19.5t-34.5 -2.5q-36 0 -64 14q-50 31 -50 94h71q-3 -23 10.5 -36.5t34.5 -13.5q12 0 22 5t17 17q7 18 7 32q0 17 -7.5 32t-21.5 21l-43 6v61q4 -1 12 -1q14 0 34 9q9 7 13.5 17t4.5 22q0 19 -10.5 32.5t-29.5 13.5q-4 0 -22.5 -6
t-18.5 -35h-67q0 46 36 71.5t86 25.5q26 0 50 -12.5t35 -36.5q10 -27 10 -49q0 -21 -8.5 -38t-22.5 -25.5t-20 -10.5t-20 -5q37 -4 58.5 -31.5t21.5 -64.5q0 -18 -6 -36z" />
    <glyph glyph-name="onehalf" unicode="&#xbd;" 
d="M712 758l-373 -743h-80l373 743h80zM297 416h-70v309h-66v60h136v-369zM856 -11h-237v20q41 45 77.5 93.5t60.5 88t24 64.5q0 16 -6 33q-15 17 -38 17q-34 0 -40 -27t-5 -36h-70q0 43 20 76t61 42q21 3 43 3h14q37 -4 62.5 -28t28.5 -44.5t3 -31.5q0 -24 -10 -51l-29 -52
q-48 -65 -91 -108h132v-59z" />
    <glyph glyph-name="onequarter" unicode="&#xbc;" 
d="M746 753l-373 -743h-80l373 743h80zM321 372h-70v309h-66v60h136v-369zM826 65h-33v-71h-66v71h-134v63l137 239h64v-249h32v-53zM727 115v179l-94 -180z" />
    <glyph glyph-name="threequarters" unicode="&#xbe;" 
d="M756 744l-373 -743h-80l373 743h80zM365 464q-16 -33 -36.5 -50t-41 -19.5t-34.5 -2.5q-36 0 -64 14q-50 31 -50 94h71q-3 -23 10.5 -36.5t34.5 -13.5q12 0 22 5t17 17q7 18 7 32q0 17 -7.5 32t-21.5 21l-43 6v61q4 -1 12 -1q14 0 34 9q9 7 13.5 17t4.5 22
q0 19 -10.5 32.5t-29.5 13.5q-4 0 -22.5 -6t-18.5 -35h-67q0 46 36 71.5t86 25.5q26 0 50 -12.5t35 -36.5q10 -27 10 -49q0 -21 -8.5 -38t-22.5 -25.5t-20 -10.5t-20 -5q37 -4 58.5 -31.5t21.5 -64.5q0 -18 -6 -36zM876 66h-33v-71h-66v71h-134v63l137 239h64v-249h32v-53z
M777 116v179l-94 -180z" />
  </font>
</defs>
</svg>
